<svg width="358" height="734" viewBox="0 0 358 734" fill="none" xmlns="http://www.w3.org/2000/svg">
<g filter="url(#filter0_f_0_1)">
<circle cx="99.8091" cy="142.812" r="208.934" transform="rotate(-54.0373 99.8091 142.812)" fill="#BAF8FF" fill-opacity="0.06"/>
</g>
<g filter="url(#filter1_f_0_1)">
<circle cx="30.8091" cy="300.812" r="208.934" transform="rotate(-54.0373 30.8091 300.812)" fill="#BAD0FF" fill-opacity="0.06"/>
</g>
<g filter="url(#filter2_f_0_1)">
<circle cx="336.303" cy="249.307" r="178.5" transform="rotate(-54.0373 336.303 249.307)" fill="#C19DFF" fill-opacity="0.06"/>
</g>
<g filter="url(#filter3_f_0_1)">
<circle cx="60.3035" cy="361.306" r="178.5" transform="rotate(-54.0373 60.3035 361.306)" fill="#9FDED3" fill-opacity="0.06"/>
</g>
<g filter="url(#filter4_f_0_1)">
<circle cx="437.5" cy="610.503" r="123.5" fill="#94ADFF" fill-opacity="0.03"/>
</g>
<g filter="url(#filter5_f_0_1)">
<circle cx="271.162" cy="-103.839" r="275.058" transform="rotate(-54.0373 271.162 -103.839)" fill="#C098DB" fill-opacity="0.06"/>
</g>
<g filter="url(#filter6_f_0_1)">
<circle cx="167.162" cy="588.162" r="275.058" transform="rotate(-54.0373 167.162 588.162)" fill="#C098DB" fill-opacity="0.06"/>
</g>
<defs>
<filter id="filter0_f_0_1" x="-264.941" y="-221.937" width="729.498" height="729.497" filterUnits="userSpaceOnUse" color-interpolation-filters="sRGB">
<feFlood flood-opacity="0" result="BackgroundImageFix"/>
<feBlend mode="normal" in="SourceGraphic" in2="BackgroundImageFix" result="shape"/>
<feGaussianBlur stdDeviation="77.9" result="effect1_foregroundBlur_0_1"/>
</filter>
<filter id="filter1_f_0_1" x="-333.941" y="-63.9367" width="729.498" height="729.497" filterUnits="userSpaceOnUse" color-interpolation-filters="sRGB">
<feFlood flood-opacity="0" result="BackgroundImageFix"/>
<feBlend mode="normal" in="SourceGraphic" in2="BackgroundImageFix" result="shape"/>
<feGaussianBlur stdDeviation="77.9" result="effect1_foregroundBlur_0_1"/>
</filter>
<filter id="filter2_f_0_1" x="1.99101" y="-85.0061" width="668.625" height="668.625" filterUnits="userSpaceOnUse" color-interpolation-filters="sRGB">
<feFlood flood-opacity="0" result="BackgroundImageFix"/>
<feBlend mode="normal" in="SourceGraphic" in2="BackgroundImageFix" result="shape"/>
<feGaussianBlur stdDeviation="77.9" result="effect1_foregroundBlur_0_1"/>
</filter>
<filter id="filter3_f_0_1" x="-274.009" y="26.993" width="668.625" height="668.625" filterUnits="userSpaceOnUse" color-interpolation-filters="sRGB">
<feFlood flood-opacity="0" result="BackgroundImageFix"/>
<feBlend mode="normal" in="SourceGraphic" in2="BackgroundImageFix" result="shape"/>
<feGaussianBlur stdDeviation="77.9" result="effect1_foregroundBlur_0_1"/>
</filter>
<filter id="filter4_f_0_1" x="222.8" y="395.803" width="429.4" height="429.4" filterUnits="userSpaceOnUse" color-interpolation-filters="sRGB">
<feFlood flood-opacity="0" result="BackgroundImageFix"/>
<feBlend mode="normal" in="SourceGraphic" in2="BackgroundImageFix" result="shape"/>
<feGaussianBlur stdDeviation="45.6" result="effect1_foregroundBlur_0_1"/>
</filter>
<filter id="filter5_f_0_1" x="-159.716" y="-534.716" width="861.756" height="861.755" filterUnits="userSpaceOnUse" color-interpolation-filters="sRGB">
<feFlood flood-opacity="0" result="BackgroundImageFix"/>
<feBlend mode="normal" in="SourceGraphic" in2="BackgroundImageFix" result="shape"/>
<feGaussianBlur stdDeviation="77.9" result="effect1_foregroundBlur_0_1"/>
</filter>
<filter id="filter6_f_0_1" x="-263.716" y="157.285" width="861.756" height="861.755" filterUnits="userSpaceOnUse" color-interpolation-filters="sRGB">
<feFlood flood-opacity="0" result="BackgroundImageFix"/>
<feBlend mode="normal" in="SourceGraphic" in2="BackgroundImageFix" result="shape"/>
<feGaussianBlur stdDeviation="77.9" result="effect1_foregroundBlur_0_1"/>
</filter>
</defs>
<path opacity="0.24" d="M56.334 192.846L57.069 193.524C57.2394 193.339 57.334 193.097 57.334 192.846H56.334ZM33.334 217.776L32.599 217.098C32.4286 217.283 32.334 217.525 32.334 217.776H33.334ZM33.334 308.792H32.334C32.334 309.026 32.4158 309.252 32.5653 309.432L33.334 308.792ZM56.334 336.432H57.334C57.334 336.199 57.2521 335.972 57.1027 335.793L56.334 336.432ZM51.0007 448C51.0007 450.945 53.3885 453.333 56.334 453.333C59.2795 453.333 61.6673 450.945 61.6673 448C61.6673 445.054 59.2795 442.667 56.334 442.667C53.3885 442.667 51.0007 445.054 51.0007 448ZM56.334 79H55.334V192.846H56.334H57.334V79H56.334ZM56.334 192.846L55.599 192.168L32.599 217.098L33.334 217.776L34.069 218.454L57.069 193.524L56.334 192.846ZM33.334 217.776H32.334V308.792H33.334H34.334V217.776H33.334ZM33.334 308.792L32.5653 309.432L55.5653 337.072L56.334 336.432L57.1027 335.793L34.1027 308.153L33.334 308.792ZM56.334 336.432H55.334V448H56.334H57.334V336.432H56.334Z" fill="url(#paint0_linear_0_1)"/>
<path opacity="0.24" d="M107.334 85.2701L106.6 85.9494C106.429 85.7645 106.334 85.5219 106.334 85.2701H107.334ZM130.334 110.12L131.068 109.44C131.239 109.625 131.334 109.868 131.334 110.12H130.334ZM130.334 204.049H131.334C131.334 204.283 131.252 204.51 131.102 204.69L130.334 204.049ZM107.334 231.6H106.334C106.334 231.365 106.416 231.139 106.566 230.959L107.334 231.6ZM112.667 284C112.667 286.946 110.28 289.333 107.334 289.333C104.388 289.333 102.001 286.946 102.001 284C102.001 281.055 104.388 278.667 107.334 278.667C110.28 278.667 112.667 281.055 112.667 284ZM107.334 -25H108.334V85.2701H107.334H106.334V-25H107.334ZM107.334 85.2701L108.068 84.5908L131.068 109.44L130.334 110.12L129.6 110.799L106.6 85.9494L107.334 85.2701ZM130.334 110.12H131.334V204.049H130.334H129.334V110.12H130.334ZM130.334 204.049L131.102 204.69L108.102 232.241L107.334 231.6L106.566 230.959L129.566 203.408L130.334 204.049ZM107.334 231.6H108.334V284H107.334H106.334V231.6H107.334Z" fill="url(#paint1_linear_0_1)"/>
<path opacity="0.34" d="M93.334 616.522L92.6147 615.828C92.4346 616.014 92.334 616.263 92.334 616.522H93.334ZM117.334 591.673L118.053 592.367C118.233 592.181 118.334 591.932 118.334 591.673H117.334ZM117.334 500.951H118.334C118.334 500.71 118.247 500.476 118.088 500.294L117.334 500.951ZM93.334 473.4H92.334C92.334 473.642 92.4214 473.875 92.58 474.057L93.334 473.4ZM98.6673 421C98.6673 418.054 96.2795 415.667 93.334 415.667C90.3885 415.667 88.0007 418.054 88.0007 421C88.0007 423.945 90.3885 426.333 93.334 426.333C96.2795 426.333 98.6673 423.945 98.6673 421ZM93.334 730H94.334V616.522H93.334H92.334V730H93.334ZM93.334 616.522L94.0533 617.217L118.053 592.367L117.334 591.673L116.615 590.978L92.6147 615.828L93.334 616.522ZM117.334 591.673H118.334V500.951H117.334H116.334V591.673H117.334ZM117.334 500.951L118.088 500.294L94.088 472.743L93.334 473.4L92.58 474.057L116.58 501.608L117.334 500.951ZM93.334 473.4H94.334V421H93.334H92.334V473.4H93.334Z" fill="url(#paint2_linear_0_1)"/>
<path opacity="0.24" d="M68.334 194.754L69.0652 195.436C69.2379 195.251 69.334 195.007 69.334 194.754H68.334ZM45.334 219.405L44.6028 218.723C44.4301 218.908 44.334 219.152 44.334 219.405H45.334ZM45.334 306.221H44.334C44.334 306.456 44.4172 306.684 44.5689 306.864L45.334 306.221ZM68.334 333.551H69.334C69.334 333.316 69.2508 333.088 69.0991 332.907L68.334 333.551ZM63.0007 497C63.0007 499.946 65.3885 502.333 68.334 502.333C71.2795 502.333 73.6673 499.946 73.6673 497C73.6673 494.054 71.2795 491.667 68.334 491.667C65.3885 491.667 63.0007 494.054 63.0007 497ZM68.334 79H67.334V194.754H68.334H69.334V79H68.334ZM68.334 194.754L67.6028 194.072L44.6028 218.723L45.334 219.405L46.0652 220.087L69.0652 195.436L68.334 194.754ZM45.334 219.405H44.334V306.221H45.334H46.334V219.405H45.334ZM45.334 306.221L44.5689 306.864L67.5689 334.195L68.334 333.551L69.0991 332.907L46.0991 305.577L45.334 306.221ZM68.334 333.551H67.334V497H68.334H69.334V333.551H68.334Z" fill="url(#paint3_linear_0_1)"/>
<path opacity="0.24" d="M95.334 88.3879L94.6035 89.0708C94.4303 88.8856 94.334 88.6415 94.334 88.3879H95.334ZM118.334 112.991L119.064 112.308C119.238 112.493 119.334 112.737 119.334 112.991H118.334ZM118.334 201.776H119.334C119.334 202.012 119.251 202.24 119.098 202.42L118.334 201.776ZM95.334 229.053H94.334C94.334 228.817 94.4174 228.589 94.5695 228.408L95.334 229.053ZM100.667 328C100.667 330.946 98.2795 333.333 95.334 333.333C92.3885 333.333 90.0007 330.946 90.0007 328C90.0007 325.055 92.3885 322.667 95.334 322.667C98.2795 322.667 100.667 325.055 100.667 328ZM95.334 -25H96.334V88.3879H95.334H94.334V-25H95.334ZM95.334 88.3879L96.0645 87.705L119.064 112.308L118.334 112.991L117.603 113.674L94.6035 89.0708L95.334 88.3879ZM118.334 112.991H119.334V201.776H118.334H117.334V112.991H118.334ZM118.334 201.776L119.098 202.42L96.0985 229.698L95.334 229.053L94.5695 228.408L117.569 201.131L118.334 201.776ZM95.334 229.053H96.334V328H95.334H94.334V229.053H95.334Z" fill="url(#paint4_linear_0_1)"/>
<path opacity="0.24" d="M81.334 195.188L82.0518 195.884C82.2328 195.697 82.334 195.448 82.334 195.188H81.334ZM57.334 219.931L56.6162 219.235C56.4352 219.422 56.334 219.671 56.334 219.931H57.334ZM57.334 305.458H56.334C56.334 305.694 56.4172 305.922 56.569 306.102L57.334 305.458ZM81.334 333.967H82.334C82.334 333.732 82.2508 333.504 82.099 333.323L81.334 333.967ZM76.0007 377C76.0007 379.945 78.3885 382.333 81.334 382.333C84.2795 382.333 86.6673 379.945 86.6673 377C86.6673 374.054 84.2795 371.667 81.334 371.667C78.3885 371.667 76.0007 374.054 76.0007 377ZM81.334 79H80.334V195.188H81.334H82.334V79H81.334ZM81.334 195.188L80.6162 194.491L56.6162 219.235L57.334 219.931L58.0518 220.628L82.0518 195.884L81.334 195.188ZM57.334 219.931H56.334V305.458H57.334H58.334V219.931H57.334ZM57.334 305.458L56.569 306.102L80.569 334.612L81.334 333.967L82.099 333.323L58.099 304.814L57.334 305.458ZM81.334 333.967H80.334V377H81.334H82.334V333.967H81.334Z" fill="url(#paint5_linear_0_1)"/>
<path opacity="0.24" d="M82.334 90.8507L81.6172 91.548C81.4356 91.3613 81.334 91.1111 81.334 90.8507H82.334ZM106.334 115.523L107.051 114.825C107.232 115.012 107.334 115.262 107.334 115.523H106.334ZM106.334 200.802H107.334C107.334 201.038 107.25 201.266 107.098 201.447L106.334 200.802ZM82.334 229.228H81.334C81.334 228.992 81.4176 228.763 81.5699 228.583L82.334 229.228ZM87.6673 248C87.6673 250.945 85.2795 253.333 82.334 253.333C79.3885 253.333 77.0007 250.945 77.0007 248C77.0007 245.054 79.3885 242.667 82.334 242.667C85.2795 242.667 87.6673 245.054 87.6673 248ZM82.334 -25H83.334V90.8507H82.334H81.334V-25H82.334ZM82.334 90.8507L83.0508 90.1534L107.051 114.825L106.334 115.523L105.617 116.22L81.6172 91.548L82.334 90.8507ZM106.334 115.523H107.334V200.802H106.334H105.334V115.523H106.334ZM106.334 200.802L107.098 201.447L83.0981 229.873L82.334 229.228L81.5699 228.583L105.57 200.156L106.334 200.802ZM82.334 229.228H83.334V248H82.334H81.334V229.228H82.334Z" fill="url(#paint6_linear_0_1)"/>
<path opacity="0.34" d="M81.334 614.617L80.6039 613.933C80.4305 614.119 80.334 614.363 80.334 614.617H81.334ZM104.334 590.045L105.064 590.728C105.237 590.543 105.334 590.298 105.334 590.045H104.334ZM104.334 503.507H105.334C105.334 503.271 105.25 503.042 105.098 502.862L104.334 503.507ZM81.334 476.264H80.334C80.334 476.5 80.4175 476.729 80.5699 476.909L81.334 476.264ZM86.6673 394C86.6673 391.054 84.2795 388.667 81.334 388.667C78.3885 388.667 76.0007 391.054 76.0007 394C76.0007 396.946 78.3885 399.333 81.334 399.333C84.2795 399.333 86.6673 396.946 86.6673 394ZM81.334 730H82.334V614.617H81.334H80.334V730H81.334ZM81.334 614.617L82.0641 615.3L105.064 590.728L104.334 590.045L103.604 589.361L80.6039 613.933L81.334 614.617ZM104.334 590.045H105.334V503.507H104.334H103.334V590.045H104.334ZM104.334 503.507L105.098 502.862L82.0981 475.619L81.334 476.264L80.5699 476.909L103.57 504.152L104.334 503.507ZM81.334 476.264H82.334V394H81.334H80.334V476.264H81.334Z" fill="url(#paint7_linear_0_1)"/>
<path opacity="0.68" d="M347.001 552C347.001 554.946 349.388 557.333 352.334 557.333C355.28 557.333 357.667 554.946 357.667 552C357.667 549.054 355.28 546.667 352.334 546.667C349.388 546.667 347.001 549.054 347.001 552ZM352.334 485H351.334V552H352.334H353.334V485H352.334Z" fill="url(#paint8_linear_0_1)"/>
<path d="M301.001 694C301.001 696.946 303.388 699.333 306.334 699.333C309.28 699.333 311.667 696.946 311.667 694C311.667 691.054 309.28 688.667 306.334 688.667C303.388 688.667 301.001 691.054 301.001 694ZM306.334 627H305.334V694H306.334H307.334V627H306.334Z" fill="url(#paint9_linear_0_1)"/>
<path opacity="0.24" d="M165.001 207C165.001 209.946 167.388 212.333 170.334 212.333C173.28 212.333 175.667 209.946 175.667 207C175.667 204.054 173.28 201.667 170.334 201.667C167.388 201.667 165.001 204.054 165.001 207ZM170.334 76H169.334V207H170.334H171.334V76H170.334Z" fill="url(#paint10_linear_0_1)"/>
<path opacity="0.55" d="M77.0007 300C77.0007 302.946 79.3885 305.333 82.334 305.333C85.2795 305.333 87.6673 302.946 87.6673 300C87.6673 297.054 85.2795 294.667 82.334 294.667C79.3885 294.667 77.0007 297.054 77.0007 300ZM82.334 261H81.334V300H82.334H83.334V261H82.334Z" fill="url(#paint11_linear_0_1)"/>
<path opacity="0.24" d="M66.0007 223C66.0007 225.946 68.3885 228.333 71.334 228.333C74.2795 228.333 76.6673 225.946 76.6673 223C76.6673 220.054 74.2795 217.667 71.334 217.667C68.3885 217.667 66.0007 220.054 66.0007 223ZM93.334 197.432L94.092 198.084C94.2481 197.903 94.334 197.672 94.334 197.432H93.334ZM93.334 117H92.334V197.432H93.334H94.334V117H93.334ZM93.334 197.432L92.576 196.78L70.576 222.348L71.334 223L72.092 223.652L94.092 198.084L93.334 197.432Z" fill="url(#paint12_linear_0_1)"/>
<path opacity="0.24" d="M0.000650883 213C0.000650883 215.946 2.38847 218.333 5.33398 218.333C8.2795 218.333 10.6673 215.946 10.6673 213C10.6673 210.054 8.2795 207.667 5.33398 207.667C2.38847 207.667 0.000650883 210.054 0.000650883 213ZM31.334 188.932L32.0133 189.665C32.2178 189.476 32.334 189.21 32.334 188.932H31.334ZM31.334 149H30.334V188.932H31.334H32.334V149H31.334ZM31.334 188.932L30.6547 188.198L4.65466 212.266L5.33398 213L6.01331 213.734L32.0133 189.665L31.334 188.932Z" fill="url(#paint13_linear_0_1)"/>
<path opacity="0.24" d="M16.0007 291C16.0007 293.946 18.3885 296.333 21.334 296.333C24.2795 296.333 26.6673 293.946 26.6673 291C26.6673 288.054 24.2795 285.667 21.334 285.667C18.3885 285.667 16.0007 288.054 16.0007 291ZM43.334 192.057L44.0399 192.765C44.2282 192.578 44.334 192.323 44.334 192.057H43.334ZM21.334 213.985L20.628 213.277C20.4398 213.464 20.334 213.719 20.334 213.985H21.334ZM43.334 76H42.334V192.057H43.334H44.334V76H43.334ZM43.334 192.057L42.628 191.349L20.628 213.277L21.334 213.985L22.0399 214.693L44.0399 192.765L43.334 192.057ZM21.334 213.985H20.334V291H21.334H22.334V213.985H21.334Z" fill="url(#paint14_linear_0_1)"/>
<path opacity="0.2" d="M133.667 519C133.667 516.054 131.28 513.667 128.334 513.667C125.388 513.667 123.001 516.054 123.001 519C123.001 521.946 125.388 524.333 128.334 524.333C131.28 524.333 133.667 521.946 133.667 519ZM104.334 617.943L103.659 617.205C103.452 617.394 103.334 617.662 103.334 617.943H104.334ZM128.334 596.015L129.009 596.753C129.216 596.564 129.334 596.296 129.334 596.015H128.334ZM104.334 734H105.334V617.943H104.334H103.334V734H104.334ZM104.334 617.943L105.009 618.681L129.009 596.753L128.334 596.015L127.659 595.277L103.659 617.205L104.334 617.943ZM128.334 596.015H129.334V519H128.334H127.334V596.015H128.334Z" fill="url(#paint15_linear_0_1)"/>
<defs>
<linearGradient id="paint0_linear_0_1" x1="44.834" y1="79" x2="44.834" y2="389.003" gradientUnits="userSpaceOnUse">
<stop stop-color="#EDE8E8" stop-opacity="0.2"/>
<stop offset="1" stop-color="#A6D7DD"/>
</linearGradient>
<linearGradient id="paint1_linear_0_1" x1="118.834" y1="-25" x2="118.834" y2="284" gradientUnits="userSpaceOnUse">
<stop stop-color="#EDE8E8" stop-opacity="0.2"/>
<stop offset="1" stop-color="#A6D7DD"/>
</linearGradient>
<linearGradient id="paint2_linear_0_1" x1="105.334" y1="730" x2="105.334" y2="421" gradientUnits="userSpaceOnUse">
<stop stop-color="#EDE8E8" stop-opacity="0.2"/>
<stop offset="1" stop-color="#A6D7DD"/>
</linearGradient>
<linearGradient id="paint3_linear_0_1" x1="56.834" y1="79" x2="56.834" y2="385.533" gradientUnits="userSpaceOnUse">
<stop stop-color="#EDE8E8" stop-opacity="0.2"/>
<stop offset="1" stop-color="#A6D7DD"/>
</linearGradient>
<linearGradient id="paint4_linear_0_1" x1="106.834" y1="-68.8576" x2="106.834" y2="280.933" gradientUnits="userSpaceOnUse">
<stop stop-color="#EDE8E8" stop-opacity="0.2"/>
<stop offset="1" stop-color="#A6D7DD"/>
</linearGradient>
<linearGradient id="paint5_linear_0_1" x1="69.334" y1="79" x2="69.334" y2="386.682" gradientUnits="userSpaceOnUse">
<stop stop-color="#EDE8E8" stop-opacity="0.2"/>
<stop offset="1" stop-color="#A6D7DD"/>
</linearGradient>
<linearGradient id="paint6_linear_0_1" x1="94.334" y1="-34.1" x2="94.334" y2="281.79" gradientUnits="userSpaceOnUse">
<stop stop-color="#EDE8E8" stop-opacity="0.2"/>
<stop offset="1" stop-color="#A6D7DD"/>
</linearGradient>
<linearGradient id="paint7_linear_0_1" x1="92.834" y1="730" x2="92.834" y2="424.448" gradientUnits="userSpaceOnUse">
<stop stop-color="#EDE8E8" stop-opacity="0.2"/>
<stop offset="1" stop-color="#A6D7DD"/>
</linearGradient>
<linearGradient id="paint8_linear_0_1" x1="343.334" y1="485" x2="343.334" y2="543.067" gradientUnits="userSpaceOnUse">
<stop stop-color="#EDE8E8" stop-opacity="0.2"/>
<stop offset="1" stop-color="#A6D7DD"/>
</linearGradient>
<linearGradient id="paint9_linear_0_1" x1="297.334" y1="627" x2="297.334" y2="685.067" gradientUnits="userSpaceOnUse">
<stop stop-color="#EDE8E8" stop-opacity="0.2"/>
<stop offset="1" stop-color="#A6D7DD"/>
</linearGradient>
<linearGradient id="paint10_linear_0_1" x1="161.334" y1="76" x2="161.334" y2="189.533" gradientUnits="userSpaceOnUse">
<stop stop-color="#EDE8E8" stop-opacity="0.2"/>
<stop offset="1" stop-color="#A6D7DD"/>
</linearGradient>
<linearGradient id="paint11_linear_0_1" x1="73.334" y1="261" x2="73.334" y2="294.8" gradientUnits="userSpaceOnUse">
<stop stop-color="#EDE8E8" stop-opacity="0.2"/>
<stop offset="1" stop-color="#A6D7DD"/>
</linearGradient>
<linearGradient id="paint12_linear_0_1" x1="86.8634" y1="97.8241" x2="86.8634" y2="239.086" gradientUnits="userSpaceOnUse">
<stop stop-color="#EDE8E8" stop-opacity="0.2"/>
<stop offset="1" stop-color="#A6D7DD"/>
</linearGradient>
<linearGradient id="paint13_linear_0_1" x1="22.884" y1="141.342" x2="24.2651" y2="231.716" gradientUnits="userSpaceOnUse">
<stop stop-color="#EDE8E8" stop-opacity="0.2"/>
<stop offset="1" stop-color="#A6D7DD"/>
</linearGradient>
<linearGradient id="paint14_linear_0_1" x1="37.0483" y1="73.8607" x2="37.0483" y2="215.697" gradientUnits="userSpaceOnUse">
<stop stop-color="#EDE8E8" stop-opacity="0.2"/>
<stop offset="1" stop-color="#A6D7DD"/>
</linearGradient>
<linearGradient id="paint15_linear_0_1" x1="111.191" y1="736.139" x2="111.191" y2="594.303" gradientUnits="userSpaceOnUse">
<stop stop-color="#EDE8E8" stop-opacity="0.2"/>
<stop offset="1" stop-color="#A6D7DD"/>
</linearGradient>
</defs>
</svg>
