<svg width="10" height="10" viewBox="0 0 10 10" fill="none" xmlns="http://www.w3.org/2000/svg">
<path d="M8.69141 6.49512C8.91674 6.49512 9.09708 6.6841 9.09766 6.90527V6.90625C9.09741 7.12951 8.91473 7.3125 8.69141 7.3125H3.84863L4.68555 8.14941C4.72373 8.18684 4.75468 8.23196 4.77539 8.28125C4.796 8.33037 4.80659 8.38325 4.80664 8.43652C4.80664 8.48998 4.79609 8.54349 4.77539 8.59277C4.75497 8.64139 4.72397 8.68457 4.68652 8.72168C4.6491 8.75986 4.60495 8.79082 4.55566 8.81152C4.50646 8.83219 4.45375 8.84274 4.40039 8.84277C4.34693 8.84277 4.29343 8.83223 4.24414 8.81152C4.19505 8.79085 4.15059 8.76068 4.11328 8.72266L2.58496 7.18945C2.50178 7.11192 2.46289 7.00261 2.46289 6.90137C2.46171 6.84841 2.47175 6.79596 2.49219 6.74707C2.55539 6.59219 2.70471 6.49512 2.86914 6.49512H8.69141ZM6.8584 2.14355C6.91175 2.14355 6.96447 2.15418 7.01367 2.1748C7.06252 2.19532 7.10732 2.225 7.14453 2.2627L8.98242 4.10059C9.0388 4.15737 9.07748 4.23005 9.09277 4.30859C9.10788 4.38647 9.09871 4.46677 9.06836 4.54004L9.06934 4.54102C9.00621 4.6961 8.85596 4.79297 8.69141 4.79297H2.86914C2.81589 4.79311 2.76304 4.78314 2.71387 4.7627C2.6646 4.74218 2.61951 4.71182 2.58203 4.67383C2.5446 4.63586 2.51495 4.59051 2.49512 4.54102C2.47533 4.49154 2.46592 4.43805 2.4668 4.38477C2.46794 4.16226 2.65029 3.98048 2.87305 3.98047H7.7168L6.57227 2.83594V2.83496C6.53457 2.79775 6.50392 2.75392 6.4834 2.70508C6.46277 2.65594 6.4522 2.6031 6.45215 2.5498C6.45215 2.49634 6.46269 2.44284 6.4834 2.39355C6.50384 2.34491 6.53381 2.30079 6.57129 2.26367C6.60871 2.22549 6.65383 2.19551 6.70312 2.1748C6.75234 2.15416 6.80503 2.14356 6.8584 2.14355Z" fill="#7DAFF2" stroke="#7DAFF2" stroke-width="0.2"/>
</svg>
