<svg width="285" height="474" viewBox="0 0 285 474" fill="none" xmlns="http://www.w3.org/2000/svg">
<path d="M0 16.1538C0 7.23233 7.23232 0 16.1538 0H153.633H250.043H268.846C277.768 0 285 7.23233 285 16.1538V421C285 450.271 261.271 474 232 474H53C23.7289 474 0 450.271 0 421V16.1538Z" fill="url(#paint0_linear_0_1)"/>
<path d="M0 16.1538C0 7.23233 7.23232 0 16.1538 0H153.633H250.043H268.846C277.768 0 285 7.23233 285 16.1538V421C285 450.271 261.271 474 232 474H53C23.7289 474 0 450.271 0 421V16.1538Z" fill="url(#paint1_radial_0_1)" fill-opacity="0.2"/>
<mask id="mask0_0_1" style="mask-type:alpha" maskUnits="userSpaceOnUse" x="0" y="0" width="285" height="460">
<path d="M0 15.6767C0 7.01871 7.01871 0 15.6767 0H153.633H250.043H269.323C277.981 0 285 7.01871 285 15.6767V407C285 436.271 261.271 460 232 460H53C23.7289 460 0 436.271 0 407V15.6767Z" fill="url(#paint2_linear_0_1)"/>
<path d="M0 15.6767C0 7.01871 7.01871 0 15.6767 0H153.633H250.043H269.323C277.981 0 285 7.01871 285 15.6767V407C285 436.271 261.271 460 232 460H53C23.7289 460 0 436.271 0 407V15.6767Z" fill="url(#paint3_radial_0_1)" fill-opacity="0.2"/>
</mask>
<g mask="url(#mask0_0_1)">
<g filter="url(#filter0_f_0_1)">
<circle cx="202" cy="94" r="89" fill="#FAFFD4" fill-opacity="0.6"/>
</g>
<g filter="url(#filter1_f_0_1)">
<circle cx="-61.5" cy="119.5" r="104.5" fill="#F87C71" fill-opacity="0.39"/>
</g>
<g filter="url(#filter2_f_0_1)">
<circle cx="24.1771" cy="139.178" r="32" transform="rotate(-26.6058 24.1771 139.178)" fill="url(#paint4_linear_0_1)" fill-opacity="0.11"/>
</g>
<g filter="url(#filter3_f_0_1)">
<circle cx="239.398" cy="346.638" r="25.7812" transform="rotate(18.5219 239.398 346.638)" fill="url(#paint5_linear_0_1)" fill-opacity="0.07"/>
</g>
<g filter="url(#filter4_f_0_1)">
<circle cx="14.8007" cy="407.801" r="73.7562" transform="rotate(-75.988 14.8007 407.801)" fill="url(#paint6_linear_0_1)" fill-opacity="0.13"/>
</g>
</g>
<defs>
<filter id="filter0_f_0_1" x="59.6" y="-48.4" width="284.8" height="284.8" filterUnits="userSpaceOnUse" color-interpolation-filters="sRGB">
<feFlood flood-opacity="0" result="BackgroundImageFix"/>
<feBlend mode="normal" in="SourceGraphic" in2="BackgroundImageFix" result="shape"/>
<feGaussianBlur stdDeviation="26.7" result="effect1_foregroundBlur_0_1"/>
</filter>
<filter id="filter1_f_0_1" x="-235.5" y="-54.5" width="348" height="348" filterUnits="userSpaceOnUse" color-interpolation-filters="sRGB">
<feFlood flood-opacity="0" result="BackgroundImageFix"/>
<feBlend mode="normal" in="SourceGraphic" in2="BackgroundImageFix" result="shape"/>
<feGaussianBlur stdDeviation="34.75" result="effect1_foregroundBlur_0_1"/>
</filter>
<filter id="filter2_f_0_1" x="-12.5301" y="102.471" width="73.4137" height="73.4137" filterUnits="userSpaceOnUse" color-interpolation-filters="sRGB">
<feFlood flood-opacity="0" result="BackgroundImageFix"/>
<feBlend mode="normal" in="SourceGraphic" in2="BackgroundImageFix" result="shape"/>
<feGaussianBlur stdDeviation="2.35" result="effect1_foregroundBlur_0_1"/>
</filter>
<filter id="filter3_f_0_1" x="208.909" y="316.15" width="60.9781" height="60.9762" filterUnits="userSpaceOnUse" color-interpolation-filters="sRGB">
<feFlood flood-opacity="0" result="BackgroundImageFix"/>
<feBlend mode="normal" in="SourceGraphic" in2="BackgroundImageFix" result="shape"/>
<feGaussianBlur stdDeviation="2.35" result="effect1_foregroundBlur_0_1"/>
</filter>
<filter id="filter4_f_0_1" x="-63.6727" y="329.327" width="156.947" height="156.948" filterUnits="userSpaceOnUse" color-interpolation-filters="sRGB">
<feFlood flood-opacity="0" result="BackgroundImageFix"/>
<feBlend mode="normal" in="SourceGraphic" in2="BackgroundImageFix" result="shape"/>
<feGaussianBlur stdDeviation="2.35" result="effect1_foregroundBlur_0_1"/>
</filter>
<linearGradient id="paint0_linear_0_1" x1="-22.7109" y1="-106.026" x2="89.5868" y2="384.274" gradientUnits="userSpaceOnUse">
<stop stop-color="#FFDBBC"/>
<stop offset="1" stop-color="white"/>
</linearGradient>
<radialGradient id="paint1_radial_0_1" cx="0" cy="0" r="1" gradientUnits="userSpaceOnUse" gradientTransform="translate(142.5 201.965) rotate(90) scale(272.035 163.565)">
<stop stop-color="#FFFF69" stop-opacity="0"/>
<stop offset="1" stop-color="#FFFF69"/>
</radialGradient>
<linearGradient id="paint2_linear_0_1" x1="-22.7109" y1="-102.895" x2="83.3589" y2="374.308" gradientUnits="userSpaceOnUse">
<stop stop-color="#FFC089"/>
<stop offset="1" stop-color="white"/>
</linearGradient>
<radialGradient id="paint3_radial_0_1" cx="0" cy="0" r="1" gradientUnits="userSpaceOnUse" gradientTransform="translate(142.5 196) rotate(90) scale(264 163.565)">
<stop stop-color="#FFFF69" stop-opacity="0"/>
<stop offset="1" stop-color="#FFFF69"/>
</radialGradient>
<linearGradient id="paint4_linear_0_1" x1="24.1771" y1="107.178" x2="24.1771" y2="171.178" gradientUnits="userSpaceOnUse">
<stop stop-color="#FA4434"/>
<stop offset="0.620192" stop-color="#F87C71" stop-opacity="0"/>
</linearGradient>
<linearGradient id="paint5_linear_0_1" x1="239.398" y1="320.856" x2="239.398" y2="372.419" gradientUnits="userSpaceOnUse">
<stop stop-color="#FA4434"/>
<stop offset="0.620192" stop-color="#F87C71" stop-opacity="0"/>
</linearGradient>
<linearGradient id="paint6_linear_0_1" x1="14.8007" y1="334.045" x2="14.8007" y2="481.558" gradientUnits="userSpaceOnUse">
<stop stop-color="#FA4434"/>
<stop offset="0.620192" stop-color="#F87C71" stop-opacity="0"/>
</linearGradient>
</defs>
</svg>
