<svg width="250" height="169" viewBox="0 0 250 169" fill="none" xmlns="http://www.w3.org/2000/svg">
<path d="M56 0H98L86.24 149H61.04L56 0Z" fill="url(#paint0_linear_0_1)" fill-opacity="0.34"/>
<path d="M126.289 10.1523L160.636 16.9279L126.627 138.678L106.019 134.613L126.289 10.1523Z" fill="url(#paint1_linear_0_1)" fill-opacity="0.34"/>
<path d="M171.803 47L197.961 58.3339L149.835 149.329L134.14 142.528L171.803 47Z" fill="url(#paint2_linear_0_1)" fill-opacity="0.34"/>
<path d="M0 47.2578L28.9005 36.9996L57.7379 143.914L40.3976 150.069L0 47.2578Z" fill="url(#paint3_linear_0_1)" fill-opacity="0.35"/>
<g filter="url(#filter0_d_0_1)">
<path d="M102.771 56.0775C106.484 51.4582 113.615 52.1513 116.402 57.4025L141.994 105.621C145.12 111.509 140.545 118.569 133.996 117.964L71.0058 112.135C65.7399 111.648 63.1511 105.366 66.4994 101.201L102.771 56.0775Z" fill="url(#paint4_linear_0_1)"/>
</g>
<g filter="url(#filter1_d_0_1)">
<path d="M102.771 56.0779C106.484 51.4586 113.616 52.1508 116.403 57.4019L141.994 105.62C145.022 111.325 140.823 118.13 134.604 117.998L133.997 117.964L71.0052 112.135C65.9039 111.663 63.3156 105.753 66.203 101.598L66.4992 101.201L102.771 56.0779ZM114.952 58.1999C112.723 53.9991 107.018 53.4447 104.047 57.1397L67.7742 102.263C65.263 105.387 67.2055 110.098 71.1549 110.464L134.145 116.292C139.384 116.777 143.044 111.129 140.544 106.418L114.952 58.1999Z" fill="url(#paint5_linear_0_1)"/>
<path d="M102.771 56.0779C106.484 51.4586 113.616 52.1508 116.403 57.4019L141.994 105.62C145.022 111.325 140.823 118.13 134.604 117.998L133.997 117.964L71.0052 112.135C65.9039 111.663 63.3156 105.753 66.203 101.598L66.4992 101.201L102.771 56.0779ZM114.952 58.1999C112.723 53.9991 107.018 53.4447 104.047 57.1397L67.7742 102.263C65.263 105.387 67.2055 110.098 71.1549 110.464L134.145 116.292C139.384 116.777 143.044 111.129 140.544 106.418L114.952 58.1999Z" fill="url(#paint6_radial_0_1)" fill-opacity="0.45"/>
</g>
<path d="M110.392 82.7696C111.172 77.911 110.691 74.4301 107.313 73.8879C103.934 73.3458 102.425 76.9933 101.721 81.378C100.941 86.2365 100.277 96.5837 103.585 97.1146C106.893 97.6455 109.613 87.6282 110.392 82.7696Z" fill="url(#paint7_linear_0_1)"/>
<path d="M110.228 82.743C110.617 80.3191 110.687 78.2643 110.252 76.7555C110.036 76.0042 109.697 75.3948 109.215 74.9414C108.735 74.4887 108.103 74.1814 107.286 74.0503C106.475 73.9201 105.784 74.0436 105.191 74.3594C104.596 74.6765 104.087 75.1943 103.654 75.8735C102.785 77.2363 102.235 79.2174 101.884 81.4039C101.495 83.8256 101.136 87.6156 101.285 90.8615C101.36 92.4858 101.561 93.9622 101.944 95.0604C102.33 96.1674 102.879 96.8336 103.611 96.951C104.344 97.0686 105.08 96.6075 105.804 95.6781C106.522 94.7564 107.189 93.4196 107.782 91.9026C108.968 88.871 109.84 85.1638 110.228 82.743ZM110.556 82.7956C110.165 85.2333 109.287 88.9637 108.091 92.0225C107.493 93.5507 106.813 94.9233 106.066 95.8823C105.325 96.8337 104.48 97.4262 103.559 97.2784C102.636 97.1304 102.027 96.3032 101.632 95.1691C101.233 94.0261 101.03 92.5117 100.955 90.8757C100.804 87.6009 101.167 83.7882 101.558 81.3516C101.911 79.1533 102.468 77.1175 103.375 75.696C103.829 74.9834 104.376 74.417 105.035 74.0658C105.697 73.7135 106.461 73.5838 107.339 73.7246C108.211 73.8647 108.907 74.1967 109.442 74.701C109.977 75.2044 110.342 75.8703 110.57 76.664C111.026 78.2459 110.947 80.3609 110.556 82.7956Z" fill="url(#paint8_linear_0_1)"/>
<path d="M105.893 103.849C105.619 105.559 104.102 106.738 102.506 106.482C100.909 106.226 99.8379 104.631 100.112 102.921C100.387 101.211 101.903 100.032 103.5 100.288C105.096 100.544 106.168 102.138 105.893 103.849Z" fill="url(#paint9_linear_0_1)"/>
<path d="M105.567 103.796C105.816 102.245 104.842 100.839 103.447 100.615C102.052 100.392 100.689 101.422 100.44 102.973C100.191 104.524 101.163 105.931 102.558 106.155L102.506 106.482L102.213 106.418C100.781 106.026 99.8552 104.524 100.113 102.92C100.387 101.21 101.904 100.032 103.5 100.288C105.096 100.544 106.167 102.138 105.893 103.848C105.618 105.558 104.102 106.738 102.506 106.482L102.558 106.155C103.953 106.378 105.318 105.347 105.567 103.796Z" fill="url(#paint10_linear_0_1)"/>
<g filter="url(#filter2_d_0_1)">
<path d="M72.5016 120.653C71.8037 119.495 72.7134 118.033 74.0609 118.148L130.384 122.955C131.696 123.067 132.359 124.592 131.546 125.627L128.874 129.031C128.164 129.934 127.038 130.406 125.897 130.277L76.449 124.695C75.426 124.579 74.5148 123.995 73.9836 123.113L72.5016 120.653Z" fill="url(#paint11_linear_0_1)"/>
</g>
<g filter="url(#filter3_d_0_1)">
<path d="M130.383 122.955C131.695 123.067 132.358 124.592 131.545 125.628L128.872 129.032L128.736 129.196C128.023 129.991 126.965 130.398 125.896 130.278L126.035 129.043C126.749 129.124 127.452 128.829 127.896 128.264L130.568 124.861C130.771 124.602 130.605 124.221 130.277 124.193L73.9546 119.386C73.6178 119.358 73.3911 119.723 73.5656 120.012L75.047 122.472C75.3791 123.023 75.949 123.39 76.5883 123.462L126.035 129.043L125.896 130.278L76.4484 124.696C75.5532 124.595 74.743 124.134 74.1988 123.43L73.9828 123.113L72.5016 120.652C71.8475 119.566 72.6058 118.216 73.8137 118.146L74.0607 118.149L130.383 122.955Z" fill="url(#paint12_linear_0_1)"/>
</g>
<g filter="url(#filter4_d_0_1)">
<path d="M77.6126 130.951C76.8218 129.78 77.7663 128.22 79.1703 128.378L121.965 133.199C123.254 133.345 123.883 134.848 123.083 135.868L120.8 138.775C120.166 139.583 119.15 139.995 118.132 139.857L81.4386 134.885C80.6204 134.775 79.8883 134.32 79.4261 133.636L77.6126 130.951Z" fill="url(#paint13_linear_0_1)"/>
</g>
<g filter="url(#filter5_d_0_1)">
<path d="M121.965 133.2C123.253 133.345 123.882 134.848 123.082 135.868L120.8 138.774C120.166 139.583 119.151 139.995 118.132 139.857L118.298 138.626C118.88 138.705 119.46 138.47 119.823 138.009L122.105 135.101C122.305 134.846 122.148 134.47 121.826 134.434L79.0312 129.612C78.6802 129.573 78.4442 129.964 78.6419 130.256L80.455 132.941C80.7191 133.332 81.1376 133.592 81.6051 133.655L118.298 138.626L118.132 139.857L81.4379 134.886C80.7221 134.789 80.0727 134.428 79.6119 133.881L79.4256 133.636L77.6126 130.951C76.822 129.78 77.7658 128.221 79.1695 128.378L121.965 133.2Z" fill="url(#paint14_linear_0_1)"/>
</g>
<g filter="url(#filter6_d_0_1)">
<path d="M83.4162 141.007C82.6972 139.814 83.6836 138.32 85.0635 138.513L114.988 142.688C116.284 142.869 116.868 144.412 116.016 145.406L114.149 147.584C113.383 148.477 112.202 148.897 111.044 148.688L86.7012 144.28C85.7643 144.111 84.9457 143.546 84.4543 142.731L83.4162 141.007Z" fill="url(#paint15_linear_0_1)"/>
</g>
<g filter="url(#filter7_d_0_1)">
<path d="M114.987 142.687C116.283 142.868 116.867 144.412 116.015 145.406L114.149 147.584C113.431 148.421 112.347 148.842 111.26 148.719L111.044 148.687L86.7008 144.28C85.8812 144.132 85.1519 143.681 84.6533 143.025L84.4546 142.73L83.4164 141.007C82.6975 139.814 83.6827 138.321 85.0623 138.513L114.987 142.687ZM84.892 139.742C84.5474 139.694 84.3002 140.067 84.4789 140.365L85.517 142.089C85.8241 142.599 86.3367 142.952 86.9223 143.058L111.266 147.465C111.989 147.596 112.727 147.334 113.205 146.776L115.072 144.597C115.285 144.348 115.139 143.963 114.815 143.918L84.892 139.742Z" fill="url(#paint16_linear_0_1)"/>
</g>
<g filter="url(#filter8_f_0_1)">
<path d="M136.322 97.4045C134.789 99.9588 122.067 99.8683 120.512 99.2798C119.375 98.1042 126.527 94.9641 131.57 94.3667C133.686 91.7432 133.392 91.005 134.947 91.5934C136.502 92.1819 138.179 94.3111 136.322 97.4045Z" fill="#FFDDBF" fill-opacity="0.2"/>
</g>
<g filter="url(#filter9_f_0_1)">
<path d="M247 163.715C247 165.607 134.748 166 116.017 166C97.2861 166 40 162.181 40 160.288C40 158.396 97.2861 159.147 116.017 159.147C134.748 159.147 247 161.822 247 163.715Z" fill="url(#paint17_linear_0_1)" fill-opacity="0.2"/>
</g>
<defs>
<filter id="filter0_d_0_1" x="64.1" y="52.1" width="81.8" height="68.8" filterUnits="userSpaceOnUse" color-interpolation-filters="sRGB">
<feFlood flood-opacity="0" result="BackgroundImageFix"/>
<feColorMatrix in="SourceAlpha" type="matrix" values="0 0 0 0 0 0 0 0 0 0 0 0 0 0 0 0 0 0 127 0" result="hardAlpha"/>
<feOffset dx="1" dy="1"/>
<feGaussianBlur stdDeviation="0.95"/>
<feComposite in2="hardAlpha" operator="out"/>
<feColorMatrix type="matrix" values="0 0 0 0 0.759615 0 0 0 0 0.120599 0 0 0 0 0.113212 0 0 0 0.42 0"/>
<feBlend mode="normal" in2="BackgroundImageFix" result="effect1_dropShadow_0_1"/>
<feBlend mode="normal" in="SourceGraphic" in2="effect1_dropShadow_0_1" result="shape"/>
</filter>
<filter id="filter1_d_0_1" x="64.1" y="52.1" width="81.8" height="68.8" filterUnits="userSpaceOnUse" color-interpolation-filters="sRGB">
<feFlood flood-opacity="0" result="BackgroundImageFix"/>
<feColorMatrix in="SourceAlpha" type="matrix" values="0 0 0 0 0 0 0 0 0 0 0 0 0 0 0 0 0 0 127 0" result="hardAlpha"/>
<feOffset dx="1" dy="1"/>
<feGaussianBlur stdDeviation="0.95"/>
<feComposite in2="hardAlpha" operator="out"/>
<feColorMatrix type="matrix" values="0 0 0 0 0.759615 0 0 0 0 0.120599 0 0 0 0 0.113212 0 0 0 0.42 0"/>
<feBlend mode="normal" in2="BackgroundImageFix" result="effect1_dropShadow_0_1"/>
<feBlend mode="normal" in="SourceGraphic" in2="effect1_dropShadow_0_1" result="shape"/>
</filter>
<filter id="filter2_d_0_1" x="70.6598" y="116.542" width="64.8406" height="17.3562" filterUnits="userSpaceOnUse" color-interpolation-filters="sRGB">
<feFlood flood-opacity="0" result="BackgroundImageFix"/>
<feColorMatrix in="SourceAlpha" type="matrix" values="0 0 0 0 0 0 0 0 0 0 0 0 0 0 0 0 0 0 127 0" result="hardAlpha"/>
<feOffset dx="1" dy="1"/>
<feGaussianBlur stdDeviation="1.3"/>
<feComposite in2="hardAlpha" operator="out"/>
<feColorMatrix type="matrix" values="0 0 0 0 0.798077 0 0 0 0 0.462731 0 0 0 0 0.360669 0 0 0 0.61 0"/>
<feBlend mode="normal" in2="BackgroundImageFix" result="effect1_dropShadow_0_1"/>
<feBlend mode="normal" in="SourceGraphic" in2="effect1_dropShadow_0_1" result="shape"/>
</filter>
<filter id="filter3_d_0_1" x="70.6598" y="116.546" width="64.8406" height="17.3533" filterUnits="userSpaceOnUse" color-interpolation-filters="sRGB">
<feFlood flood-opacity="0" result="BackgroundImageFix"/>
<feColorMatrix in="SourceAlpha" type="matrix" values="0 0 0 0 0 0 0 0 0 0 0 0 0 0 0 0 0 0 127 0" result="hardAlpha"/>
<feOffset dx="1" dy="1"/>
<feGaussianBlur stdDeviation="1.3"/>
<feComposite in2="hardAlpha" operator="out"/>
<feColorMatrix type="matrix" values="0 0 0 0 0.798077 0 0 0 0 0.462731 0 0 0 0 0.360669 0 0 0 0.61 0"/>
<feBlend mode="normal" in2="BackgroundImageFix" result="effect1_dropShadow_0_1"/>
<feBlend mode="normal" in="SourceGraphic" in2="effect1_dropShadow_0_1" result="shape"/>
</filter>
<filter id="filter4_d_0_1" x="75.7242" y="126.767" width="51.3133" height="16.7156" filterUnits="userSpaceOnUse" color-interpolation-filters="sRGB">
<feFlood flood-opacity="0" result="BackgroundImageFix"/>
<feColorMatrix in="SourceAlpha" type="matrix" values="0 0 0 0 0 0 0 0 0 0 0 0 0 0 0 0 0 0 127 0" result="hardAlpha"/>
<feOffset dx="1" dy="1"/>
<feGaussianBlur stdDeviation="1.3"/>
<feComposite in2="hardAlpha" operator="out"/>
<feColorMatrix type="matrix" values="0 0 0 0 0.798077 0 0 0 0 0.462731 0 0 0 0 0.360669 0 0 0 0.61 0"/>
<feBlend mode="normal" in2="BackgroundImageFix" result="effect1_dropShadow_0_1"/>
<feBlend mode="normal" in="SourceGraphic" in2="effect1_dropShadow_0_1" result="shape"/>
</filter>
<filter id="filter5_d_0_1" x="75.7242" y="126.767" width="51.3133" height="16.7166" filterUnits="userSpaceOnUse" color-interpolation-filters="sRGB">
<feFlood flood-opacity="0" result="BackgroundImageFix"/>
<feColorMatrix in="SourceAlpha" type="matrix" values="0 0 0 0 0 0 0 0 0 0 0 0 0 0 0 0 0 0 127 0" result="hardAlpha"/>
<feOffset dx="1" dy="1"/>
<feGaussianBlur stdDeviation="1.3"/>
<feComposite in2="hardAlpha" operator="out"/>
<feColorMatrix type="matrix" values="0 0 0 0 0.798077 0 0 0 0 0.462731 0 0 0 0 0.360669 0 0 0 0.61 0"/>
<feBlend mode="normal" in2="BackgroundImageFix" result="effect1_dropShadow_0_1"/>
<feBlend mode="normal" in="SourceGraphic" in2="effect1_dropShadow_0_1" result="shape"/>
</filter>
<filter id="filter6_d_0_1" x="81.5738" y="136.896" width="38.4422" height="15.4451" filterUnits="userSpaceOnUse" color-interpolation-filters="sRGB">
<feFlood flood-opacity="0" result="BackgroundImageFix"/>
<feColorMatrix in="SourceAlpha" type="matrix" values="0 0 0 0 0 0 0 0 0 0 0 0 0 0 0 0 0 0 127 0" result="hardAlpha"/>
<feOffset dx="1" dy="1"/>
<feGaussianBlur stdDeviation="1.3"/>
<feComposite in2="hardAlpha" operator="out"/>
<feColorMatrix type="matrix" values="0 0 0 0 0.798077 0 0 0 0 0.462731 0 0 0 0 0.360669 0 0 0 0.61 0"/>
<feBlend mode="normal" in2="BackgroundImageFix" result="effect1_dropShadow_0_1"/>
<feBlend mode="normal" in="SourceGraphic" in2="effect1_dropShadow_0_1" result="shape"/>
</filter>
<filter id="filter7_d_0_1" x="81.5758" y="136.896" width="38.4402" height="15.4441" filterUnits="userSpaceOnUse" color-interpolation-filters="sRGB">
<feFlood flood-opacity="0" result="BackgroundImageFix"/>
<feColorMatrix in="SourceAlpha" type="matrix" values="0 0 0 0 0 0 0 0 0 0 0 0 0 0 0 0 0 0 127 0" result="hardAlpha"/>
<feOffset dx="1" dy="1"/>
<feGaussianBlur stdDeviation="1.3"/>
<feComposite in2="hardAlpha" operator="out"/>
<feColorMatrix type="matrix" values="0 0 0 0 0.798077 0 0 0 0 0.462731 0 0 0 0 0.360669 0 0 0 0.61 0"/>
<feBlend mode="normal" in2="BackgroundImageFix" result="effect1_dropShadow_0_1"/>
<feBlend mode="normal" in="SourceGraphic" in2="effect1_dropShadow_0_1" result="shape"/>
</filter>
<filter id="filter8_f_0_1" x="116.091" y="87.1033" width="25.348" height="16.8197" filterUnits="userSpaceOnUse" color-interpolation-filters="sRGB">
<feFlood flood-opacity="0" result="BackgroundImageFix"/>
<feBlend mode="normal" in="SourceGraphic" in2="BackgroundImageFix" result="shape"/>
<feGaussianBlur stdDeviation="2.15" result="effect1_foregroundBlur_0_1"/>
</filter>
<filter id="filter9_f_0_1" x="37.8" y="156.8" width="211.4" height="11.4" filterUnits="userSpaceOnUse" color-interpolation-filters="sRGB">
<feFlood flood-opacity="0" result="BackgroundImageFix"/>
<feBlend mode="normal" in="SourceGraphic" in2="BackgroundImageFix" result="shape"/>
<feGaussianBlur stdDeviation="1.1" result="effect1_foregroundBlur_0_1"/>
</filter>
<linearGradient id="paint0_linear_0_1" x1="77" y1="0" x2="77" y2="149" gradientUnits="userSpaceOnUse">
<stop stop-color="#FF3333" stop-opacity="0"/>
<stop offset="1" stop-color="#FF3333"/>
</linearGradient>
<linearGradient id="paint1_linear_0_1" x1="143.462" y1="13.5401" x2="119.07" y2="137.188" gradientUnits="userSpaceOnUse">
<stop stop-color="#FF3333" stop-opacity="0"/>
<stop offset="1" stop-color="#FF3333"/>
</linearGradient>
<linearGradient id="paint2_linear_0_1" x1="184.882" y1="52.6669" x2="144.08" y2="146.835" gradientUnits="userSpaceOnUse">
<stop stop-color="#FF3333" stop-opacity="0"/>
<stop offset="1" stop-color="#FF3333"/>
</linearGradient>
<linearGradient id="paint3_linear_0_1" x1="14.4503" y1="42.1287" x2="51.3798" y2="146.171" gradientUnits="userSpaceOnUse">
<stop stop-color="#FF3333" stop-opacity="0"/>
<stop offset="1" stop-color="#FF3333"/>
</linearGradient>
<linearGradient id="paint4_linear_0_1" x1="93.2486" y1="69.0424" x2="120.299" y2="111.398" gradientUnits="userSpaceOnUse">
<stop stop-color="#FF9D84"/>
<stop offset="0.875326" stop-color="#E53333"/>
</linearGradient>
<linearGradient id="paint5_linear_0_1" x1="81.709" y1="64.0087" x2="132.751" y2="107.579" gradientUnits="userSpaceOnUse">
<stop stop-color="#FFFDD2"/>
<stop offset="1" stop-color="#EE8469"/>
</linearGradient>
<radialGradient id="paint6_radial_0_1" cx="0" cy="0" r="1" gradientTransform="matrix(-50.2785 -31.0412 9.02371 -15.1425 152.594 114.346)" gradientUnits="userSpaceOnUse">
<stop stop-color="#FFF3AE"/>
<stop offset="1" stop-color="#FFF3AE" stop-opacity="0"/>
</radialGradient>
<linearGradient id="paint7_linear_0_1" x1="105.412" y1="86.5761" x2="112.036" y2="90.7161" gradientUnits="userSpaceOnUse">
<stop stop-color="white"/>
<stop offset="1" stop-color="#D9DBE4"/>
</linearGradient>
<linearGradient id="paint8_linear_0_1" x1="110.38" y1="91.5437" x2="102.928" y2="86.5757" gradientUnits="userSpaceOnUse">
<stop stop-color="#9C9C9C"/>
<stop offset="1" stop-color="white"/>
</linearGradient>
<linearGradient id="paint9_linear_0_1" x1="102.099" y1="103.136" x2="104.583" y2="105.62" gradientUnits="userSpaceOnUse">
<stop stop-color="white"/>
<stop offset="1" stop-color="#D9DBE4"/>
</linearGradient>
<linearGradient id="paint10_linear_0_1" x1="107.895" y1="104.792" x2="103.755" y2="101.48" gradientUnits="userSpaceOnUse">
<stop stop-color="#8D8D8D"/>
<stop offset="1" stop-color="white"/>
</linearGradient>
<linearGradient id="paint11_linear_0_1" x1="87.1967" y1="109.76" x2="96.3047" y2="131.288" gradientUnits="userSpaceOnUse">
<stop stop-color="#FF9D84"/>
<stop offset="1" stop-color="#E53333"/>
</linearGradient>
<linearGradient id="paint12_linear_0_1" x1="84.7121" y1="110.588" x2="97.9601" y2="131.288" gradientUnits="userSpaceOnUse">
<stop stop-color="#FFF397"/>
<stop offset="0.519231" stop-color="#FFBB97"/>
<stop offset="1" stop-color="#FA7352"/>
</linearGradient>
<linearGradient id="paint13_linear_0_1" x1="88.8517" y1="127.976" x2="89.6797" y2="135.428" gradientUnits="userSpaceOnUse">
<stop stop-color="#FF9D84"/>
<stop offset="1" stop-color="#E53333"/>
</linearGradient>
<linearGradient id="paint14_linear_0_1" x1="87.1955" y1="118.869" x2="102.099" y2="141.225" gradientUnits="userSpaceOnUse">
<stop stop-color="#FFF397"/>
<stop offset="0.403846" stop-color="#FFBB97"/>
<stop offset="1" stop-color="#F57B56"/>
</linearGradient>
<linearGradient id="paint15_linear_0_1" x1="95.4761" y1="133.772" x2="95.4761" y2="145.364" gradientUnits="userSpaceOnUse">
<stop stop-color="#FF9D84"/>
<stop offset="1" stop-color="#E53333"/>
</linearGradient>
<linearGradient id="paint16_linear_0_1" x1="84.7117" y1="129.632" x2="94.6477" y2="147.02" gradientUnits="userSpaceOnUse">
<stop stop-color="#FFBB97"/>
<stop offset="1" stop-color="#FF6B35"/>
</linearGradient>
<linearGradient id="paint17_linear_0_1" x1="82.1017" y1="162.573" x2="149.932" y2="162.573" gradientUnits="userSpaceOnUse">
<stop stop-color="#DF0300" stop-opacity="0"/>
<stop offset="0.323319" stop-color="#DF0300"/>
<stop offset="0.456731" stop-color="#DF0300" stop-opacity="0.981409"/>
<stop offset="1" stop-color="#DF0300" stop-opacity="0"/>
</linearGradient>
</defs>
</svg>
