<svg width="62" height="79" viewBox="0 0 62 79" fill="none" xmlns="http://www.w3.org/2000/svg">
<g clip-path="url(#clip0_5323_101)">
<g filter="url(#filter0_d_5323_101)">
<path d="M54 28C54 40.7025 43.7025 51 31 51C18.2975 51 8 40.7025 8 28C8 15.2975 18.2975 5 31 5C43.7025 5 54 15.2975 54 28Z" fill="white"/>
</g>
<circle cx="23" cy="24" r="3" fill="#87D58D"/>
<path d="M40 21L36 24.2L40 27" stroke="#87D58D" stroke-width="2" stroke-linecap="round" stroke-linejoin="round"/>
<path d="M23 36C23.9143 37.8182 26.6571 41 31.2286 41C35.8 41 38.5429 37.3636 39 36" stroke="#87D58D" stroke-width="2" stroke-linecap="round"/>
<path d="M57 27.4997C57 16.9658 50.6128 7.92379 41.5 4.03516" stroke="#D8FFDB" stroke-width="2" stroke-linecap="round"/>
<path d="M5 29C5 43.0833 16.4167 54.5 30.5 54.5" stroke="#CCFFCF" stroke-width="2" stroke-linecap="round"/>
</g>
<path d="M5.04 68.136C6.06 68.568 6.996 69.084 7.848 69.696L7.176 70.74C6.264 70.056 5.316 69.516 4.356 69.132L5.04 68.136ZM1.704 70.932H10.32V71.892C9.6 73.824 8.052 75.288 5.676 76.284L4.824 75.18C6.744 74.448 8.076 73.416 8.832 72.096H1.704V70.932ZM5.568 65.112H6.456C7.956 66.756 9.684 68.052 11.652 69L11.004 70.176C9.048 69.192 7.38 67.896 6.012 66.3C4.752 67.8 3.084 69.096 1.02 70.188L0.372 69C2.46 67.968 4.188 66.672 5.568 65.112ZM22.02 65.52V76.2H20.76V75.372H15.468V76.212H14.208V65.52H22.02ZM15.468 74.148H20.76V70.92H15.468V74.148ZM15.468 69.696H20.76V66.744H15.468V69.696ZM27.036 70.92V65.208H28.272V76.224H27.036V72.384C26.364 73.104 25.62 73.764 24.816 74.388L24.42 73.08C25.38 72.432 26.244 71.712 27.036 70.92ZM25.692 66.408C26.112 67.344 26.484 68.352 26.796 69.432L25.704 69.924C25.344 68.748 24.948 67.704 24.516 66.804L25.692 66.408ZM33.768 65.376C34.368 66.072 34.836 66.672 35.16 67.176L34.176 67.872C33.84 67.296 33.372 66.672 32.796 65.976L33.768 65.376ZM32.436 65.184C32.436 66.012 32.424 67.032 32.4 68.232H35.196V69.444H32.496C33.048 71.94 34.092 73.872 35.628 75.252L34.764 76.212C33.396 74.88 32.46 73.26 31.932 71.364C31.38 73.32 30.492 74.952 29.292 76.248L28.44 75.3C29.928 73.584 30.804 71.628 31.068 69.444H28.812V68.232H31.14C31.176 66.9 31.2 65.88 31.2 65.184H32.436ZM41.352 65.016L42.6 65.148C42.552 65.532 42.492 65.904 42.408 66.264H46.884V67.476H43.308C43.884 68.628 45.288 69.54 47.52 70.2L46.848 71.28C44.232 70.344 42.636 69.072 42.036 67.488C41.772 68.136 41.436 68.7 41.028 69.18C41.508 69.516 42.036 69.96 42.636 70.488L41.772 71.364C41.292 70.86 40.764 70.368 40.212 69.912C39.396 70.488 38.28 70.956 36.888 71.328L36.384 70.164C38.064 69.744 39.264 69.144 39.996 68.376C40.236 68.112 40.452 67.812 40.632 67.476H36.996V66.264H41.112C41.22 65.868 41.304 65.448 41.352 65.016ZM37.524 72.132L38.76 72.408C38.472 73.656 38.076 74.748 37.572 75.66L36.492 74.976C36.984 74.088 37.332 73.14 37.524 72.132ZM42.456 71.652C42.864 72.264 43.224 72.924 43.536 73.62L42.384 74.136C42.072 73.332 41.724 72.624 41.352 72.024L42.456 71.652ZM46.08 71.928C46.632 72.816 47.124 73.764 47.532 74.784L46.38 75.3C45.924 74.172 45.42 73.188 44.868 72.324L46.08 71.928ZM43.704 75.996H40.632C39.72 75.996 39.276 75.516 39.276 74.568V72.096H40.548V74.304C40.548 74.616 40.704 74.784 41.016 74.784H43.464C43.656 74.784 43.8 74.712 43.896 74.58C44.016 74.448 44.088 74.028 44.124 73.332L45.312 73.728C45.216 74.832 45.036 75.48 44.772 75.696C44.544 75.888 44.184 75.996 43.704 75.996ZM52.416 66.408H54.912V65.148H56.184V66.408H58.74V67.62H56.184V69.012H59.316V70.236H51.828V69.012H54.912V67.62H52.416V66.408ZM52.32 71.808H54.912V70.608H56.184V71.808H58.812V73.02H56.184V74.628H59.484V75.852H51.648V74.628H54.912V73.02H52.32V71.808ZM49.776 70.044C49.452 70.428 49.116 70.812 48.756 71.184L48.336 69.84C49.548 68.484 50.448 66.888 51.036 65.04L52.224 65.592C51.924 66.504 51.528 67.38 51.048 68.208V76.272H49.776V70.044Z" fill="#29B764"/>
<defs>
<filter id="filter0_d_5323_101" x="-0.9" y="0.1" width="63.8" height="63.8" filterUnits="userSpaceOnUse" color-interpolation-filters="sRGB">
<feFlood flood-opacity="0" result="BackgroundImageFix"/>
<feColorMatrix in="SourceAlpha" type="matrix" values="0 0 0 0 0 0 0 0 0 0 0 0 0 0 0 0 0 0 127 0" result="hardAlpha"/>
<feOffset dy="4"/>
<feGaussianBlur stdDeviation="4.45"/>
<feComposite in2="hardAlpha" operator="out"/>
<feColorMatrix type="matrix" values="0 0 0 0 0.621227 0 0 0 0 0.899038 0 0 0 0 0.6008 0 0 0 0.6 0"/>
<feBlend mode="normal" in2="BackgroundImageFix" result="effect1_dropShadow_5323_101"/>
<feBlend mode="normal" in="SourceGraphic" in2="effect1_dropShadow_5323_101" result="shape"/>
</filter>
<clipPath id="clip0_5323_101">
<rect width="62" height="59" fill="white"/>
</clipPath>
</defs>
</svg>
