<svg width="24" height="24" viewBox="0 0 24 24" fill="none" xmlns="http://www.w3.org/2000/svg">
<path d="M6.16325 11.5283C6.15123 11.5516 6.13176 11.5711 6.12123 11.5951C5.91497 12.0241 5.9825 12.5491 6.34774 12.8941L14.627 20.7248C15.0785 21.1516 15.7902 21.1314 16.2177 20.6806C16.6445 20.2291 16.625 19.5173 16.1735 19.0898L8.74471 12.0623L16.1442 4.93059C16.5912 4.49936 16.6047 3.7876 16.1735 3.33984C15.953 3.11035 15.6582 2.99557 15.3635 2.99557C15.0822 2.99557 14.801 3.10055 14.5827 3.31057L6.37846 11.2178C6.36269 11.2336 6.35673 11.2553 6.34096 11.2718C6.32895 11.283 6.31621 11.2913 6.30423 11.3033C6.24049 11.3701 6.20675 11.4518 6.16325 11.5283Z" fill="#4B4E50"/>
</svg>
