<svg width="631" height="954" xmlns="http://www.w3.org/2000/svg" p-id="5117" version="1.1" class="icon" t="1766585846083">
 <g>
  <title>Layer 1</title>
  <path id="svg_1" fill="#888888" class="selected" data-spm-anchor-id="a313x.search_index.0.i0.3c553a81YOmdtO" p-id="5118" d="m568.24,0.2l-504.84,0a63.42,63.42 0 0 0 -63.4,63.42l0,826a63.4,63.4 0 0 0 63.4,63.4l504.84,0a63.4,63.4 0 0 0 63.4,-63.4l0,-826a63.42,63.42 0 0 0 -63.4,-63.42zm-504.84,56.8l504.84,0a6.58,6.58 0 0 1 6.62,6.62l0,560.56l-518,0l0,-560.56a6.58,6.58 0 0 1 6.54,-6.62zm504.84,839.22l-504.84,0a6.58,6.58 0 0 1 -6.62,-6.62l0,-208.6l518,0l0,208.6a6.66,6.66 0 0 1 -6.54,6.62zm-313.24,-109.88a62,62 0 1 0 62,-62a62,62 0 0 0 -62,62z"/>
 </g>
</svg>