<svg width="1024" height="1024" xmlns="http://www.w3.org/2000/svg" p-id="13273" version="1.1" class="icon" t="1765889866940">

 <g>
  <title>Layer 1</title>
  <ellipse ry="509.99998" rx="511.24998" id="svg_5" cy="512.00003" cx="512" stroke="null" fill="#5EAADE"/>
  <path stroke="null" id="svg_2" p-id="13275" fill="#FFFFFF" d="m789.29075,667.61871c-3.9987,-50.19963 -30.45907,-106.08797 -41.32676,-134.16313l-27.97529,-72.26443c-0.88845,-30.06089 7.9961,-99.21509 -38.64972,-185.72075s-140.38232,-94.30329 -157.70782,-95.19174c-17.32551,-0.88845 -125.72217,-1.77692 -179.03204,92.40317c-53.30988,94.18009 -38.94545,188.50932 -38.94545,188.50932l-29.79889,72.81048c-0.0013,0.0026 -13.88584,33.21782 -25.87933,73.64315c-11.99478,40.42664 -23.98957,103.95438 -11.99478,116.83762c11.99478,12.88324 55.53036,-59.08548 59.52906,-65.74823c0,0 3.11023,34.42923 11.32811,52.42141l1.02593,2.25032l0.41894,0.91569l0.4799,1.0467l0.38003,0.82619l0.5629,1.21661l0.25681,0.55123a356.54786,356.54786 0 0 0 2.42931,5.09856l0.23864,0.48898c0.29313,0.59921 0.59274,1.20751 0.90142,1.82749l0.18417,0.36965c8.72373,17.49023 23.57583,42.84556 47.43181,63.87016l0.02205,0.01946l-1.49935,0.49026c-13.5123,4.45396 -40.14907,14.19971 -51.46163,25.1063c-2.1751,2.09728 -3.78469,4.23735 -4.62385,6.39169c-6.81063,17.47337 5.33073,19.5473 26.06349,20.73147c20.73148,1.18418 120.24358,3.85084 167.92571,-2.81321c0.51622,-0.07134 0.99741,-0.14398 1.48379,-0.2166c3.43319,0.11932 6.74316,0.18028 9.91696,0.20363l0.19196,0.00129c1.05836,0.00649 2.10635,0.01037 3.13488,0.01037c0.62905,0 1.28534,-0.0026 1.9533,-0.00778l0.26588,-0.0013a281.97085,281.97085 0 0 0 6.91957,-0.13488c0.32945,0.04798 0.64332,0.09598 0.98574,0.14397c47.68342,6.66405 147.19423,3.9987 167.9257,2.81323c20.73148,-1.18418 32.87412,-3.2581 26.0622,-20.73147c-5.44875,-13.98051 -43.29044,-27.38645 -58.21517,-32.1919a179.10468,179.10468 0 0 0 10.08169,-9.6848l0.2996,-0.30999a180.50544,180.50544 0 0 0 3.20623,-3.42282c53.75345,-59.08548 49.31117,-96.40186 51.53296,-117.72607c0,0 45.31897,65.30466 55.08938,67.52644c9.7704,2.22179 12.88064,-7.9948 8.88194,-58.19572z"/>
 </g>
</svg>