<svg width="20" height="20" viewBox="0 0 20 20" fill="none" xmlns="http://www.w3.org/2000/svg">
<path d="M14.8636 10.3935C14.8736 10.3742 14.8899 10.3579 14.8986 10.3379C15.0705 9.9804 15.0143 9.54292 14.7099 9.25539L7.81052 2.72979C7.43426 2.37416 6.84116 2.39103 6.48489 2.76668C6.12926 3.14294 6.14552 3.73604 6.52178 4.09231L12.7124 9.94854L6.54614 15.8917C6.17364 16.251 6.16239 16.8442 6.52178 17.2173C6.70553 17.4085 6.95116 17.5042 7.19679 17.5042C7.43117 17.5042 7.66555 17.4167 7.84741 17.2417L14.6843 10.6523C14.6974 10.6392 14.7024 10.6211 14.7155 10.6073C14.7256 10.598 14.7362 10.5911 14.7461 10.5811C14.7993 10.5254 14.8274 10.4573 14.8636 10.3935Z" fill="#4B4E50"/>
</svg>
