<svg width="16" height="16" viewBox="0 0 16 16" fill="none" xmlns="http://www.w3.org/2000/svg">
<g clip-path="url(#clip0_5757_687)">
<path opacity="0.01" d="M0 0H16V16H0V0Z" fill="white"/>
<path d="M3.92702e-07 4.38295V2.93308C-0.000139868 2.7425 0.0372939 2.55376 0.11016 2.37766C0.183027 2.20157 0.289897 2.04156 0.424656 1.9068C0.559416 1.77204 0.719421 1.66517 0.89552 1.59231C1.07162 1.51944 1.26035 1.48201 1.45093 1.48215H2.1776V0.755479C2.17386 0.65778 2.18986 0.56033 2.22467 0.468964C2.25947 0.377599 2.31236 0.294196 2.38015 0.22375C2.44795 0.153304 2.52927 0.0972639 2.61923 0.0589852C2.7092 0.0207066 2.80596 0.000976563 2.90373 0.000976562C3.0015 0.000976563 3.09827 0.0207066 3.18824 0.0589852C3.2782 0.0972639 3.35952 0.153304 3.42731 0.22375C3.49511 0.294196 3.54799 0.377599 3.5828 0.468964C3.6176 0.56033 3.63361 0.65778 3.62987 0.755479V1.48215H12.3405V0.755479C12.3387 0.659039 12.3561 0.563198 12.3917 0.473561C12.4273 0.383925 12.4805 0.302291 12.548 0.233434C12.6156 0.164578 12.6962 0.109881 12.7851 0.0725412C12.8741 0.0352018 12.9695 0.0159697 13.066 0.0159697C13.1625 0.0159697 13.2579 0.0352018 13.3469 0.0725412C13.4358 0.109881 13.5164 0.164578 13.584 0.233434C13.6515 0.302291 13.7047 0.383925 13.7403 0.473561C13.7759 0.563198 13.7933 0.659039 13.7915 0.755479V1.48215H14.5216C14.712 1.48229 14.9005 1.51993 15.0764 1.59292C15.2522 1.66591 15.412 1.77282 15.5465 1.90756C15.681 2.04229 15.7877 2.2022 15.8604 2.37816C15.9332 2.55412 15.9705 2.74268 15.9704 2.93308V4.38535L3.92702e-07 4.38295ZM3.92702e-07 5.10961H15.9701V14.548C15.9703 14.7388 15.9329 14.9277 15.86 15.1039C15.7871 15.2802 15.6801 15.4403 15.5453 15.5752C15.4104 15.7101 15.2503 15.8171 15.074 15.89C14.8978 15.9629 14.7089 16.0004 14.5181 16.0003H1.45147C1.26091 16.0005 1.07218 15.9631 0.896074 15.8903C0.719966 15.8176 0.559933 15.7108 0.425128 15.5761C0.290322 15.4414 0.183388 15.2815 0.110441 15.1054C0.0374942 14.9294 -3.47721e-05 14.7407 3.92702e-07 14.5501V5.10961ZM4.31067 10.1229L6.7872 12.4979C6.80683 12.5243 6.82898 12.5488 6.85333 12.5709C6.91348 12.6336 6.98565 12.6834 7.06552 12.7174C7.1454 12.7514 7.23132 12.769 7.31813 12.769C7.40495 12.769 7.49087 12.7514 7.57074 12.7174C7.65061 12.6834 7.72279 12.6336 7.78293 12.5709L11.8725 8.51334C11.9968 8.39296 12.0683 8.2282 12.0713 8.05519C12.0743 7.88217 12.0086 7.71503 11.8885 7.59041L11.8781 7.58028C11.7559 7.4586 11.5904 7.3903 11.4179 7.3903C11.2454 7.3903 11.0799 7.4586 10.9576 7.58028L10.9475 7.59041L7.3144 11.1944L5.23147 9.19121C5.17155 9.13038 5.10024 9.08194 5.02161 9.04867C4.94297 9.0154 4.85855 8.99794 4.77317 8.9973C4.68779 8.99665 4.60312 9.01284 4.52399 9.04492C4.44486 9.077 4.37283 9.12436 4.312 9.18428L4.30507 9.19121C4.18313 9.31335 4.11465 9.47889 4.11465 9.65148C4.11465 9.82407 4.18313 9.9896 4.30507 10.1117L4.31067 10.1229Z" fill="#1BF29C"/>
<path d="M3.92702e-07 4.38295V2.93308C-0.000139868 2.7425 0.0372939 2.55376 0.11016 2.37767C0.183027 2.20157 0.289897 2.04156 0.424656 1.9068C0.559416 1.77204 0.719421 1.66517 0.89552 1.59231C1.07162 1.51944 1.26035 1.48201 1.45093 1.48215H2.1776V0.755479C2.17386 0.65778 2.18986 0.56033 2.22467 0.468964C2.25947 0.377599 2.31236 0.294196 2.38015 0.22375C2.44795 0.153304 2.52927 0.0972639 2.61923 0.0589853C2.7092 0.0207066 2.80596 0.000976563 2.90373 0.000976562C3.0015 0.000976563 3.09827 0.0207066 3.18824 0.0589853C3.2782 0.0972639 3.35952 0.153304 3.42731 0.22375C3.49511 0.294196 3.54799 0.377599 3.5828 0.468964C3.6176 0.56033 3.63361 0.65778 3.62987 0.755479V1.48215H12.3405V0.755479C12.3387 0.659039 12.3561 0.563198 12.3917 0.473561C12.4273 0.383925 12.4805 0.302291 12.548 0.233435C12.6156 0.164578 12.6962 0.109881 12.7851 0.0725412C12.8741 0.0352018 12.9695 0.0159697 13.066 0.0159697C13.1625 0.0159697 13.2579 0.0352018 13.3469 0.0725412C13.4358 0.109881 13.5164 0.164578 13.584 0.233435C13.6515 0.302291 13.7047 0.383925 13.7403 0.473561C13.7759 0.563198 13.7933 0.659039 13.7915 0.755479V1.48215H14.5216C14.712 1.48229 14.9005 1.51993 15.0764 1.59292C15.2522 1.66591 15.412 1.77282 15.5465 1.90756C15.681 2.04229 15.7877 2.2022 15.8604 2.37816C15.9332 2.55412 15.9705 2.74268 15.9704 2.93308V4.38535L3.92702e-07 4.38295Z" fill="#8FEFCF"/>
</g>
<defs>
<clipPath id="clip0_5757_687">
<rect width="16" height="16" fill="white"/>
</clipPath>
</defs>
</svg>
