<svg width="18" height="18" viewBox="0 0 18 18" fill="none" xmlns="http://www.w3.org/2000/svg">
<g clip-path="url(#clip0_5757_696)">
<path opacity="0.01" d="M0 0H18V18H0V0Z" fill="#202425"/>
<path d="M3 9.59961C3 6.28581 5.6862 3.59961 9 3.59961C12.3138 3.59961 15 6.28581 15 9.59961V11.3996C15 14.7134 12.3138 17.3996 9 17.3996C5.6862 17.3996 3 14.7134 3 11.3996V9.59961Z" fill="#FF7744"/>
<path d="M8.99922 9.59961C9.1568 9.59961 9.31285 9.63065 9.45844 9.69095C9.60403 9.75126 9.73632 9.83965 9.84775 9.95108C9.95918 10.0625 10.0476 10.1948 10.1079 10.3404C10.1682 10.486 10.1992 10.642 10.1992 10.7996C10.1992 10.9572 10.1682 11.1132 10.1079 11.2588C10.0476 11.4044 9.95918 11.5367 9.84775 11.6481C9.73632 11.7596 9.60403 11.848 9.45844 11.9083C9.31285 11.9686 9.1568 11.9996 8.99922 11.9996C8.68096 11.9996 8.37573 11.8732 8.15069 11.6481C7.92565 11.4231 7.79922 11.1179 7.79922 10.7996C7.79922 10.4813 7.92565 10.1761 8.15069 9.95108C8.37573 9.72604 8.68096 9.59961 8.99922 9.59961ZM12.5992 9.59961C12.7568 9.59961 12.9128 9.63065 13.0584 9.69095C13.204 9.75126 13.3363 9.83965 13.4477 9.95108C13.5592 10.0625 13.6476 10.1948 13.7079 10.3404C13.7682 10.486 13.7992 10.642 13.7992 10.7996C13.7992 10.9572 13.7682 11.1132 13.7079 11.2588C13.6476 11.4044 13.5592 11.5367 13.4477 11.6481C13.3363 11.7596 13.204 11.848 13.0584 11.9083C12.9128 11.9686 12.7568 11.9996 12.5992 11.9996C12.281 11.9996 11.9757 11.8732 11.7507 11.6481C11.5256 11.4231 11.3992 11.1179 11.3992 10.7996C11.3992 10.4813 11.5256 10.1761 11.7507 9.95108C11.9757 9.72604 12.281 9.59961 12.5992 9.59961ZM5.39922 9.59961C5.55681 9.59961 5.71285 9.63065 5.85844 9.69095C6.00403 9.75126 6.13632 9.83965 6.24775 9.95108C6.35918 10.0625 6.44757 10.1948 6.50787 10.3404C6.56818 10.486 6.59922 10.642 6.59922 10.7996C6.59922 10.9572 6.56818 11.1132 6.50787 11.2588C6.44757 11.4044 6.35918 11.5367 6.24775 11.6481C6.13632 11.7596 6.00403 11.848 5.85844 11.9083C5.71285 11.9686 5.55681 11.9996 5.39922 11.9996C5.08096 11.9996 4.77573 11.8732 4.55069 11.6481C4.32565 11.4231 4.19922 11.1179 4.19922 10.7996C4.19922 10.4813 4.32565 10.1761 4.55069 9.95108C4.77573 9.72604 5.08096 9.59961 5.39922 9.59961Z" fill="white"/>
<path d="M9 0.599609C4.0296 0.599609 0 4.62921 0 9.59961V11.9996C4.66201e-09 12.3179 0.126428 12.6231 0.351472 12.8481C0.576516 13.0732 0.88174 13.1996 1.2 13.1996H1.8C2.11826 13.1996 2.42348 13.0732 2.64853 12.8481C2.87357 12.6231 3 12.3179 3 11.9996V10.1996C3.00007 9.88557 2.87702 9.58401 2.65727 9.35966C2.43752 9.13531 2.13858 9.00605 1.8246 8.99961C2.1294 5.30361 5.2254 2.39961 9 2.39961C12.774 2.39961 15.8706 5.30361 16.1754 8.99961C15.8614 9.00605 15.5625 9.13531 15.3427 9.35966C15.123 9.58401 14.9999 9.88557 15 10.1996V11.9996C15 12.3179 15.1264 12.6231 15.3515 12.8481C15.5765 13.0732 15.8817 13.1996 16.2 13.1996H16.8C17.1183 13.1996 17.4235 13.0732 17.6485 12.8481C17.8736 12.6231 18 12.3179 18 11.9996V9.59961C18 4.62921 13.9704 0.599609 9 0.599609Z" fill="#FFAA44"/>
</g>
<defs>
<clipPath id="clip0_5757_696">
<rect width="18" height="18" fill="white"/>
</clipPath>
</defs>
</svg>
