<svg width="10" height="13" viewBox="0 0 10 13" fill="none" xmlns="http://www.w3.org/2000/svg">
<path d="M1.15931 6.44186C1.15931 4.1464 2.05256 2.16469 3.352 1.01443C3.59181 0.802161 3.61421 0.435411 3.40197 0.195587C3.1897 -0.0442196 2.82295 -0.0666213 2.58313 0.145617C0.999672 1.54725 -2.38419e-07 3.86447 -2.38419e-07 6.44186C2.67029e-05 9.01912 0.999796 11.3358 2.58313 12.7374C2.82293 12.9497 3.18968 12.9279 3.40197 12.6881C3.61424 12.4483 3.59177 12.0816 3.352 11.8693C2.05256 10.7191 1.15934 8.73731 1.15931 6.44186Z" fill="white"/>
<path d="M4.57154 6.44233C4.57154 5.11183 5.07535 4.02105 5.72818 3.4761C5.97392 3.27083 6.00667 2.90508 5.80147 2.65925C5.5962 2.41351 5.23045 2.38076 4.98462 2.58596C4.00611 3.40288 3.41223 4.85757 3.41223 6.44233C3.41223 8.02709 4.00611 9.48178 4.98462 10.2987C5.23045 10.5039 5.5962 10.4711 5.80147 10.2254C6.00667 9.97958 5.97392 9.61383 5.72818 9.40856C5.07535 8.86361 4.57154 7.77283 4.57154 6.44233Z" fill="white"/>
<path d="M8.9064 6.94287C9.19882 6.67275 9.19882 6.21068 8.9064 5.94056L8.03565 5.1362C7.59868 4.73254 6.89045 5.04247 6.89045 5.63735V7.24608C6.89045 7.84096 7.59868 8.15089 8.03565 7.74724L8.9064 6.94287Z" fill="white"/>
<path d="M8.90656 6.94273C9.19877 6.67264 9.19877 6.21076 8.90656 5.94066L8.03574 5.13647C7.59877 4.73282 6.89043 5.04263 6.89043 5.63751H7.02701C7.02701 5.1616 7.59355 4.91349 7.94313 5.23642L8.81394 6.0406C9.04788 6.2567 9.04788 6.62669 8.81394 6.84279L7.94313 7.64698C7.59355 7.96991 7.02701 7.72179 7.02701 7.24588H6.89043L6.89842 7.35449C6.97271 7.84205 7.5419 8.0911 7.95046 7.81488L8.03574 7.74692L8.90656 6.94273ZM7.02701 5.63751H6.89043V7.24588H7.02701V5.63751Z" fill="#68A9FF"/>
</svg>