<svg width="362" height="179" viewBox="0 0 362 179" fill="none" xmlns="http://www.w3.org/2000/svg">
<g clip-path="url(#clip0_0_1)">
<path d="M131.513 28.0383L128.574 24.8236C128.39 24.6261 128.018 24.5673 127.754 24.7255C127.489 24.8838 127.409 25.1402 127.622 25.3573L130.316 28.3226V28.3268L127.649 31.2543C127.464 31.4518 127.517 31.7474 127.78 31.8861C128.045 32.0247 128.416 31.9841 128.601 31.7684L131.513 28.5705C131.645 28.4137 131.645 28.1965 131.513 28.0383Z" fill="#7DAFF2"/>
<path d="M135.455 28.0383L132.518 24.8236C132.333 24.6261 131.962 24.5673 131.697 24.7255C131.432 24.8642 131.379 25.1598 131.565 25.3573L134.26 28.324V28.3268L131.592 31.2543C131.407 31.4518 131.46 31.7474 131.724 31.8861C131.988 32.0247 132.36 31.9841 132.545 31.7684L135.455 28.5705C135.588 28.4137 135.588 28.1965 135.455 28.0383Z" fill="#7DAFF2"/>
<path d="M139.401 28.0383L136.463 24.8236C136.278 24.6261 135.907 24.5673 135.642 24.7255C135.378 24.8642 135.324 25.1598 135.511 25.3573L138.203 28.3212V28.3282L135.536 31.2529C135.351 31.4504 135.404 31.746 135.668 31.8846C135.932 32.0233 136.304 31.9827 136.488 31.767L139.401 28.5705C139.534 28.4137 139.534 28.1965 139.401 28.0383Z" fill="#7DAFF2"/>
</g>
<g filter="url(#filter0_d_0_1)">
<rect x="9.5" y="49.5" width="177" height="118" rx="8" fill="white"/>
</g>
<path d="M136.531 73.94C138.051 73.94 139.271 74.34 140.191 75.16C140.991 75.88 141.411 76.78 141.411 77.86C141.411 78.58 141.251 79.2 140.931 79.7C140.571 80.22 140.051 80.64 139.351 80.92V80.96C140.011 81.14 140.591 81.54 141.071 82.16C141.611 82.84 141.891 83.62 141.891 84.5C141.891 85.78 141.411 86.8 140.491 87.6C139.551 88.38 138.231 88.78 136.531 88.78C134.811 88.78 133.491 88.38 132.571 87.6C131.631 86.8 131.171 85.78 131.171 84.5C131.171 83.62 131.431 82.84 131.991 82.16C132.471 81.54 133.031 81.14 133.711 80.96V80.92C132.991 80.64 132.471 80.22 132.131 79.7C131.811 79.2 131.651 78.58 131.651 77.86C131.651 76.78 132.051 75.88 132.871 75.16C133.771 74.34 134.991 73.94 136.531 73.94ZM136.531 75.8C135.691 75.8 135.011 76.02 134.511 76.48C134.071 76.88 133.851 77.36 133.851 77.94C133.851 78.6 134.031 79.12 134.391 79.5C134.831 79.96 135.531 80.2 136.531 80.2C137.511 80.2 138.231 79.96 138.671 79.5C139.031 79.12 139.211 78.6 139.211 77.94C139.211 77.36 138.991 76.88 138.551 76.48C138.031 76.02 137.371 75.8 136.531 75.8ZM136.531 81.94C135.531 81.94 134.771 82.18 134.251 82.66C133.731 83.12 133.491 83.74 133.491 84.5C133.491 85.22 133.751 85.8 134.291 86.24C134.811 86.68 135.551 86.9 136.531 86.9C137.491 86.9 138.251 86.66 138.811 86.22C139.311 85.78 139.571 85.22 139.571 84.5C139.571 83.74 139.311 83.12 138.831 82.68C138.291 82.18 137.531 81.94 136.531 81.94ZM148.523 73.94C150.183 73.94 151.483 74.62 152.423 76.02C153.303 77.34 153.743 79.12 153.743 81.36C153.743 83.6 153.303 85.38 152.423 86.7C151.483 88.08 150.183 88.78 148.523 88.78C146.843 88.78 145.543 88.08 144.623 86.7C143.743 85.38 143.303 83.6 143.303 81.36C143.303 79.12 143.743 77.34 144.623 76.02C145.543 74.62 146.843 73.94 148.523 73.94ZM148.523 75.92C147.383 75.92 146.583 76.54 146.123 77.82C145.803 78.68 145.643 79.86 145.643 81.36C145.643 82.84 145.803 84.02 146.123 84.9C146.583 86.16 147.383 86.8 148.523 86.8C149.643 86.8 150.443 86.16 150.923 84.9C151.243 84.02 151.403 82.84 151.403 81.36C151.403 79.86 151.243 78.68 150.923 77.82C150.443 76.54 149.643 75.92 148.523 75.92ZM163.6 83.808C164.272 83.808 164.788 84.036 165.148 84.516C165.46 84.924 165.628 85.476 165.628 86.16C165.628 86.832 165.46 87.384 165.148 87.804C164.788 88.26 164.272 88.5 163.6 88.5C162.928 88.5 162.4 88.26 162.04 87.804C161.704 87.372 161.548 86.832 161.548 86.16C161.548 85.476 161.704 84.924 162.04 84.516C162.4 84.036 162.928 83.808 163.6 83.808ZM162.376 79.764H163.42L158.608 88.668H157.564L162.376 79.764ZM157.408 79.932C158.08 79.932 158.596 80.16 158.956 80.64C159.268 81.048 159.436 81.6 159.436 82.284C159.436 82.956 159.268 83.508 158.956 83.928C158.596 84.384 158.08 84.624 157.408 84.624C156.736 84.624 156.208 84.384 155.848 83.928C155.512 83.496 155.356 82.956 155.356 82.284C155.356 81.6 155.512 81.048 155.848 80.64C156.208 80.16 156.736 79.932 157.408 79.932ZM163.6 84.684C163.3 84.684 163.084 84.84 162.964 85.152C162.868 85.392 162.82 85.728 162.82 86.16C162.82 86.58 162.868 86.916 162.964 87.156C163.084 87.468 163.3 87.624 163.6 87.624C163.888 87.624 164.092 87.456 164.224 87.132C164.308 86.892 164.356 86.568 164.356 86.16C164.356 85.728 164.308 85.404 164.212 85.164C164.092 84.84 163.888 84.684 163.6 84.684ZM157.408 80.808C157.108 80.808 156.892 80.964 156.772 81.276C156.676 81.516 156.628 81.852 156.628 82.284C156.628 82.704 156.676 83.04 156.772 83.28C156.892 83.592 157.108 83.748 157.408 83.748C157.696 83.748 157.9 83.58 158.032 83.256C158.116 83.016 158.164 82.692 158.164 82.284C158.164 81.852 158.116 81.528 158.02 81.288C157.9 80.964 157.696 80.808 157.408 80.808Z" fill="#4B4E50"/>
<path d="M91.044 83.3H91.548V85.588H91.044V85.22C90.756 85.404 90.452 85.58 90.124 85.74L89.98 85.244C90.372 85.1 90.724 84.94 91.044 84.764V84.228H90.036V83.764H91.044V83.3ZM93.564 84.34V85.044C93.564 85.156 93.628 85.212 93.772 85.212H93.908C93.988 85.212 94.06 85.196 94.108 85.164C94.18 85.116 94.228 84.916 94.244 84.556L94.652 84.684C94.612 85.156 94.548 85.436 94.452 85.524C94.364 85.604 94.212 85.652 94.004 85.66H93.62C93.436 85.66 93.3 85.612 93.212 85.516C93.116 85.42 93.068 85.3 93.068 85.156V83.3H93.564V83.9C93.884 83.812 94.172 83.692 94.436 83.54L94.604 84.004C94.3 84.148 93.948 84.26 93.564 84.34ZM94.028 80.972L94.292 81.428C93.796 81.572 93.236 81.684 92.604 81.764V82.428H94.404V82.94H92.604V85.636C93.196 86.028 93.796 86.484 94.404 86.996L94.068 87.508C93.492 86.94 93.004 86.5 92.604 86.196V88.316H92.06V86.028C91.54 86.732 90.924 87.324 90.22 87.804L89.884 87.3C90.812 86.732 91.532 86.052 92.06 85.252V82.94H90.108V82.428H92.06V81.812C91.548 81.852 90.996 81.876 90.412 81.876L90.26 81.404C91.772 81.404 93.028 81.26 94.028 80.972ZM95.036 81.9H95.556V86.78H95.036V81.9ZM96.156 88.252H95.388L95.268 87.708C95.508 87.732 95.74 87.748 95.964 87.748C96.196 87.748 96.316 87.636 96.316 87.428V81.06H96.876V87.564C96.876 88.02 96.636 88.252 96.156 88.252ZM101.3 80.996H101.708C102.716 81.94 103.884 82.684 105.212 83.236L104.908 83.764C103.58 83.188 102.444 82.436 101.5 81.5C100.636 82.388 99.484 83.156 98.06 83.804L97.772 83.276C99.18 82.66 100.356 81.9 101.3 80.996ZM99.388 83.14H103.636V83.692H101.86V84.724H104.764V85.284H101.86V87.396C101.86 87.932 101.58 88.204 101.028 88.204H100.068L99.94 87.66C100.252 87.676 100.548 87.692 100.836 87.692C101.14 87.692 101.292 87.54 101.292 87.252V85.284H98.244V84.724H101.292V83.692H99.388V83.14ZM99.796 85.804L100.3 86.012C99.844 86.844 99.244 87.476 98.5 87.916L98.06 87.548C98.828 87.116 99.404 86.532 99.796 85.804ZM103.188 85.7C103.972 86.42 104.58 87.052 105.004 87.588L104.524 87.924C104.092 87.34 103.5 86.692 102.748 85.98L103.188 85.7ZM107.108 84.324V85.524H109.076V84.324H107.108ZM109.076 86.06H107.108V86.74H106.532V82.076H109.076V80.98H109.66V82.076H112.252V86.06H109.66V87.044C109.66 87.436 109.836 87.636 110.188 87.636H112.012C112.212 87.636 112.356 87.588 112.452 87.5C112.532 87.404 112.588 87.092 112.62 86.548L113.164 86.732C113.116 87.412 113.028 87.828 112.884 87.972C112.74 88.108 112.484 88.18 112.108 88.18H110.052C109.396 88.18 109.076 87.828 109.076 87.132V86.06ZM109.66 85.524H111.684V84.324H109.66V85.524ZM111.684 83.796V82.62H109.66V83.796H111.684ZM109.076 82.62H107.108V83.796H109.076V82.62ZM114.724 84.316H120.292V86.356H117.78V86.804H120.492V87.188H117.78V87.66H121.076V88.108H113.924V87.66H117.204V87.188H114.524V86.804H117.204V86.356H114.724V84.316ZM119.74 85.996V85.508H117.78V85.996H119.74ZM117.204 85.996V85.508H115.276V85.996H117.204ZM115.276 85.172H117.204V84.676H115.276V85.172ZM117.78 84.676V85.172H119.74V84.676H117.78ZM114.9 81.092H120.124V83.068H114.9V81.092ZM119.564 82.724V82.252H115.46V82.724H119.564ZM115.46 81.908H119.564V81.444H115.46V81.908ZM113.916 83.484H121.084V83.916H113.916V83.484Z" fill="#4B4E50"/>
<rect x="28.5" y="104.5" width="113.851" height="46.0741" rx="9" fill="white" stroke="url(#paint0_linear_0_1)" stroke-width="2"/>
<rect x="34.6758" y="109.909" width="101.498" height="35.2543" rx="6" fill="#BCD0EB" fill-opacity="0.11"/>
<path d="M149.5 126.468C149.5 129.123 148.122 131.275 146.424 131.275C146.424 128.27 146.424 129.123 146.424 126.468C146.424 123.813 146.424 124.364 146.424 121.66C148.122 121.66 149.5 123.813 149.5 126.468Z" fill="#F0F9BF"/>
<path d="M33.8262 116.313C33.8262 113 36.5125 110.313 39.8262 110.313H106.618V145.568H39.8262C36.5125 145.568 33.8262 142.882 33.8262 139.568V116.313Z" fill="url(#paint1_linear_0_1)"/>
<path d="M11.222 20.202C12.174 20.944 12.986 21.672 13.644 22.4L12.93 23.114C12.342 22.414 11.544 21.672 10.522 20.86L11.222 20.202ZM19.398 32.648C18.642 32.648 17.83 32.634 16.948 32.62C16.066 32.606 15.338 32.522 14.778 32.368C14.246 32.2 13.756 31.85 13.322 31.346C13.14 31.108 12.958 30.996 12.79 30.996C12.454 30.996 11.894 31.64 11.11 32.928L10.354 32.242C11.11 31.066 11.768 30.352 12.356 30.1V25.844H10.354V24.92H13.294V30.17C13.406 30.254 13.504 30.352 13.616 30.478C13.952 30.884 14.302 31.178 14.694 31.36C15.114 31.556 15.744 31.668 16.556 31.696C17.284 31.71 18.18 31.724 19.258 31.724C19.93 31.724 20.616 31.71 21.316 31.696C21.988 31.682 22.52 31.668 22.898 31.64L22.646 32.648H19.398ZM15.212 20.86H21.638V21.784H15.212V20.86ZM14.358 24.038H22.66V25.004H18.292C17.522 26.992 16.836 28.406 16.22 29.246C18.04 29.05 19.538 28.798 20.728 28.518C20.392 27.734 20.014 26.978 19.608 26.25L20.434 25.984C21.19 27.272 21.862 28.742 22.45 30.394L21.554 30.632C21.414 30.198 21.26 29.778 21.092 29.386C19.552 29.75 17.536 30.044 15.044 30.282L14.792 29.4C15.38 29.232 16.206 27.762 17.298 25.004H14.358V24.038ZM29.45 20.958H36.156V21.952H29.45V20.958ZM29.072 24.514H36.772V25.508H34.504V31.626C34.504 32.438 34.042 32.844 33.146 32.844H31.088L30.878 31.85C31.55 31.892 32.18 31.92 32.796 31.92C33.244 31.92 33.482 31.738 33.482 31.374V25.508H29.072V24.514ZM27.238 20.188L28.148 20.608C27.364 22.162 26.104 23.534 24.368 24.724L24.074 23.716C25.53 22.68 26.58 21.504 27.238 20.188ZM27.896 23.38L28.806 23.8C28.4 24.584 27.896 25.34 27.28 26.04V32.9H26.286V27.062C25.726 27.566 25.124 28.056 24.452 28.518L24.158 27.51C25.866 26.306 27.112 24.934 27.896 23.38ZM41.266 26.796V20.146H42.26V32.858H41.266V27.986C40.426 28.882 39.46 29.736 38.396 30.52L38.088 29.47C39.25 28.7 40.314 27.804 41.266 26.796ZM39.222 21.532C39.754 22.652 40.216 23.856 40.608 25.13L39.726 25.536C39.292 24.136 38.802 22.904 38.27 21.84L39.222 21.532ZM48.672 20.342C49.428 21.182 50.002 21.924 50.408 22.554L49.624 23.114C49.204 22.414 48.616 21.658 47.888 20.832L48.672 20.342ZM47.118 20.104C47.118 21.14 47.104 22.372 47.076 23.828H50.492V24.794H47.188C47.79 27.93 49.05 30.366 50.982 32.074L50.296 32.83C48.532 31.164 47.342 29.05 46.726 26.502C46.138 29.036 45.032 31.164 43.436 32.872L42.764 32.116C44.64 30.016 45.718 27.566 45.998 24.794H43.184V23.828H46.054C46.096 22.204 46.124 20.958 46.124 20.104H47.118ZM57.996 19.936L59.004 20.034C58.948 20.566 58.85 21.056 58.738 21.532H64.142V22.498H59.662C60.348 24.052 62.084 25.256 64.87 26.124L64.338 26.992C61.23 25.9 59.34 24.402 58.64 22.498H58.43C58.122 23.31 57.702 24.024 57.184 24.612C57.128 24.668 57.086 24.71 57.044 24.766C57.66 25.2 58.332 25.76 59.088 26.446L58.388 27.146C57.716 26.474 57.044 25.872 56.372 25.34C55.448 26.026 54.132 26.586 52.452 27.034L52.06 26.11C54.048 25.606 55.49 24.878 56.372 23.954C56.764 23.534 57.072 23.044 57.324 22.498H52.732V21.532H57.674C57.828 21.028 57.94 20.496 57.996 19.936ZM53.502 28.21L54.496 28.42C54.16 29.876 53.684 31.136 53.082 32.2L52.214 31.654C52.802 30.618 53.236 29.47 53.502 28.21ZM58.808 27.706C59.298 28.434 59.732 29.218 60.096 30.058L59.172 30.464C58.78 29.526 58.374 28.7 57.926 27.986L58.808 27.706ZM62.994 28C63.666 29.036 64.254 30.156 64.758 31.36L63.834 31.766C63.288 30.45 62.686 29.302 62.028 28.308L62.994 28ZM60.432 32.606H56.876C55.98 32.606 55.546 32.13 55.546 31.206V28.168H56.582V30.996C56.582 31.416 56.778 31.626 57.198 31.626H60.25C60.544 31.626 60.754 31.542 60.88 31.374C61.048 31.178 61.16 30.604 61.216 29.638L62.168 29.946C62.07 31.206 61.874 31.962 61.594 32.242C61.342 32.48 60.964 32.606 60.432 32.606Z" fill="#4B4E50"/>
<path d="M78.42 24.56H74.64V23.85H82.54V24.56H79.15V27.47H82.03V28.16H79.15V31.36H82.96V32.06H74.05V31.36H75.62V26.56H76.32V31.36H78.42V24.56ZM88.13 28.46H85.93V26.26H91.09V28.46H88.87V29.26H92.05V31.08C92.05 31.68 91.74 31.98 91.14 31.98H90.34L90.15 31.29L90.91 31.32C91.19 31.32 91.34 31.18 91.34 30.92V29.92H88.87V32.52H88.13V29.92H85.71V32.04H85V29.26H88.13V28.46ZM88.13 23.28H88.87V24.81H90.14C90.45 24.37 90.72 23.91 90.94 23.42L91.61 23.67C91.38 24.11 91.14 24.49 90.9 24.81H92.66V26.83H91.92V25.49H85.08V26.84H84.34V24.81H85.97C85.78 24.43 85.55 24.07 85.29 23.74L85.97 23.49C86.23 23.86 86.47 24.3 86.68 24.81H88.13V23.28ZM90.4 27.85V26.87H86.63V27.85H90.4ZM94.73 23.43C95.41 23.96 95.99 24.48 96.46 25L95.95 25.51C95.53 25.01 94.96 24.48 94.23 23.9L94.73 23.43ZM100.57 32.32C100.03 32.32 99.45 32.31 98.82 32.3C98.19 32.29 97.67 32.23 97.27 32.12C96.89 32 96.54 31.75 96.23 31.39C96.1 31.22 95.97 31.14 95.85 31.14C95.61 31.14 95.21 31.6 94.65 32.52L94.11 32.03C94.65 31.19 95.12 30.68 95.54 30.5V27.46H94.11V26.8H96.21V30.55C96.29 30.61 96.36 30.68 96.44 30.77C96.68 31.06 96.93 31.27 97.21 31.4C97.51 31.54 97.96 31.62 98.54 31.64C99.06 31.65 99.7 31.66 100.47 31.66C100.95 31.66 101.44 31.65 101.94 31.64C102.42 31.63 102.8 31.62 103.07 31.6L102.89 32.32H100.57ZM97.58 23.9H102.17V24.56H97.58V23.9ZM96.97 26.17H102.9V26.86H99.78C99.23 28.28 98.74 29.29 98.3 29.89C99.6 29.75 100.67 29.57 101.52 29.37C101.28 28.81 101.01 28.27 100.72 27.75L101.31 27.56C101.85 28.48 102.33 29.53 102.75 30.71L102.11 30.88C102.01 30.57 101.9 30.27 101.78 29.99C100.68 30.25 99.24 30.46 97.46 30.63L97.28 30C97.7 29.88 98.29 28.83 99.07 26.86H96.97V26.17ZM107.75 23.97H112.54V24.68H107.75V23.97ZM107.48 26.51H112.98V27.22H111.36V31.59C111.36 32.17 111.03 32.46 110.39 32.46H108.92L108.77 31.75C109.25 31.78 109.7 31.8 110.14 31.8C110.46 31.8 110.63 31.67 110.63 31.41V27.22H107.48V26.51ZM106.17 23.42L106.82 23.72C106.26 24.83 105.36 25.81 104.12 26.66L103.91 25.94C104.95 25.2 105.7 24.36 106.17 23.42ZM106.64 25.7L107.29 26C107 26.56 106.64 27.1 106.2 27.6V32.5H105.49V28.33C105.09 28.69 104.66 29.04 104.18 29.37L103.97 28.65C105.19 27.79 106.08 26.81 106.64 25.7ZM118.13 23.29H118.87V25.09H122.46V29.79H121.74V29.16H118.87V32.57H118.13V29.16H115.27V29.79H114.55V25.09H118.13V23.29ZM115.27 28.46H118.13V25.79H115.27V28.46ZM118.87 28.46H121.74V25.79H118.87V28.46Z" fill="#7DAFF2"/>
<g filter="url(#filter1_d_0_1)">
<rect x="202.5" y="7.5" width="150" height="72" rx="8" fill="white"/>
</g>
<path d="M230.068 27.764V34.228H228.436V33.508H222.068V34.228H220.436V27.764H230.068ZM222.068 31.94H228.436V29.332H222.068V31.94ZM228.596 22.5H219.828V24.452H228.596V22.5ZM219.828 25.988V26.66C219.812 29.588 219.108 32.116 217.732 34.244L216.42 33.06C217.572 31.396 218.164 29.268 218.18 26.66V20.932H223.412C223.204 20.404 222.98 19.908 222.756 19.46L224.5 19.172C224.708 19.7 224.916 20.292 225.124 20.932H230.26V25.988H219.828ZM235.636 25.268V27.572H239.156V25.268H235.636ZM235.556 29.108C235.348 31.092 234.756 32.756 233.78 34.068L232.5 32.916C233.444 31.572 233.924 29.86 233.956 27.78V19.86H246.356V31.94C246.356 33.172 245.716 33.796 244.452 33.796H242.612L242.164 32.164C242.804 32.228 243.38 32.26 243.924 32.26C244.404 32.26 244.66 31.94 244.66 31.332V29.108H240.852V33.62H239.156V29.108H235.556ZM244.66 27.572V25.268H240.852V27.572H244.66ZM244.66 23.732V21.492H240.852V23.732H244.66ZM239.156 21.492H235.636V23.732H239.156V21.492Z" fill="#4B4E50"/>
<rect x="263.551" y="70.5" width="49.05" height="22" rx="11" transform="rotate(180 263.551 70.5)" fill="url(#paint2_linear_0_1)" fill-opacity="0.21"/>
<g filter="url(#filter2_d_0_1)">
<rect width="42.51" height="16" rx="8" transform="matrix(-1 0 0 1 260.281 51.5)" fill="white"/>
<rect x="-0.5" y="0.5" width="41.51" height="15" rx="7.5" transform="matrix(-1 0 0 1 259.281 51.5)" stroke="url(#paint3_linear_0_1)"/>
</g>
<g filter="url(#filter3_d_0_1)">
<circle cx="252.5" cy="59.5" r="7" transform="rotate(180 252.5 59.5)" fill="#7DAFF2"/>
</g>
<path d="M254.433 29.812V26.012H255.001V33.276H254.433V30.492C253.953 31.004 253.401 31.492 252.793 31.94L252.617 31.34C253.281 30.9 253.889 30.388 254.433 29.812ZM253.265 26.804C253.569 27.444 253.833 28.132 254.057 28.86L253.553 29.092C253.305 28.292 253.025 27.588 252.721 26.98L253.265 26.804ZM258.665 26.124C259.097 26.604 259.425 27.028 259.657 27.388L259.209 27.708C258.969 27.308 258.633 26.876 258.217 26.404L258.665 26.124ZM257.777 25.988C257.777 26.58 257.769 27.284 257.753 28.116H259.705V28.668H257.817C258.161 30.46 258.881 31.852 259.985 32.828L259.593 33.26C258.585 32.308 257.905 31.1 257.553 29.644C257.217 31.092 256.585 32.308 255.673 33.284L255.289 32.852C256.361 31.652 256.977 30.252 257.137 28.668H255.529V28.116H257.169C257.193 27.188 257.209 26.476 257.209 25.988H257.777ZM263.993 25.892L264.569 25.948C264.537 26.252 264.481 26.532 264.417 26.804H267.505V27.356H264.945C265.337 28.244 266.329 28.932 267.921 29.428L267.617 29.924C265.841 29.3 264.761 28.444 264.361 27.356H264.241C264.065 27.82 263.825 28.228 263.529 28.564C263.497 28.596 263.473 28.62 263.449 28.652C263.801 28.9 264.185 29.22 264.617 29.612L264.217 30.012C263.833 29.628 263.449 29.284 263.065 28.98C262.537 29.372 261.785 29.692 260.825 29.948L260.601 29.42C261.737 29.132 262.561 28.716 263.065 28.188C263.289 27.948 263.465 27.668 263.609 27.356H260.985V26.804H263.809C263.897 26.516 263.961 26.212 263.993 25.892ZM261.425 30.62L261.993 30.74C261.801 31.572 261.529 32.292 261.185 32.9L260.689 32.588C261.025 31.996 261.273 31.34 261.425 30.62ZM264.457 30.332C264.737 30.748 264.985 31.196 265.193 31.676L264.665 31.908C264.441 31.372 264.209 30.9 263.953 30.492L264.457 30.332ZM266.849 30.5C267.233 31.092 267.569 31.732 267.857 32.42L267.329 32.652C267.017 31.9 266.673 31.244 266.297 30.676L266.849 30.5ZM265.385 33.132H263.353C262.841 33.132 262.593 32.86 262.593 32.332V30.596H263.185V32.212C263.185 32.452 263.297 32.572 263.537 32.572H265.281C265.449 32.572 265.569 32.524 265.641 32.428C265.737 32.316 265.801 31.988 265.833 31.436L266.377 31.612C266.321 32.332 266.209 32.764 266.049 32.924C265.905 33.06 265.689 33.132 265.385 33.132Z" fill="#4B4E50"/>
<g filter="url(#filter4_d_0_1)">
<rect x="202.5" y="93.5" width="150" height="74" rx="8" fill="white"/>
</g>
<path d="M222.003 110.22H231.663V112.1L226.663 124.5H224.183L229.303 112.34H222.003V110.22ZM234.297 110.22H242.997V112.28H236.177L235.777 116.2H235.837C236.277 115.76 236.777 115.44 237.357 115.24C237.877 115.04 238.457 114.94 239.097 114.94C240.437 114.94 241.537 115.38 242.377 116.26C243.217 117.14 243.657 118.36 243.657 119.9C243.657 121.38 243.097 122.58 241.977 123.52C240.937 124.36 239.717 124.78 238.297 124.78C236.997 124.78 235.877 124.42 234.957 123.72C233.917 122.94 233.357 121.88 233.257 120.56H235.557C235.657 121.34 235.957 121.92 236.477 122.3C236.917 122.62 237.537 122.8 238.317 122.8C239.157 122.8 239.877 122.54 240.457 122.02C241.017 121.5 241.317 120.8 241.317 119.92C241.317 118.96 241.057 118.2 240.577 117.66C240.097 117.1 239.377 116.84 238.457 116.84C237.837 116.84 237.297 116.94 236.857 117.16C236.357 117.4 235.977 117.76 235.697 118.26H233.517L234.297 110.22Z" fill="#4B4E50"/>
<path d="M257.063 116.132L257.567 116.436C257.191 117.1 256.815 117.644 256.439 118.068C256.039 118.532 255.503 118.988 254.839 119.436L254.527 118.932C255.071 118.62 255.567 118.212 256.007 117.708C256.391 117.26 256.743 116.74 257.063 116.132ZM257.327 119.7H255.711V119.148H260.487C260.463 120.148 260.415 120.956 260.335 121.572C260.255 122.18 260.127 122.612 259.943 122.852C259.767 123.084 259.479 123.212 259.079 123.236H257.623L257.463 122.668C257.927 122.684 258.367 122.692 258.783 122.692C259.215 122.692 259.495 122.508 259.631 122.14C259.775 121.756 259.863 120.948 259.903 119.7H257.911C257.719 120.572 257.455 121.268 257.111 121.78C256.703 122.356 256.087 122.868 255.271 123.324L254.903 122.844C255.639 122.444 256.199 122.004 256.575 121.524C256.911 121.06 257.159 120.452 257.327 119.7ZM259.319 116.028C259.783 117.26 260.607 118.236 261.799 118.948L261.415 119.404C260.175 118.604 259.311 117.572 258.823 116.308L259.319 116.028ZM268.527 116.292V121.092H267.935V116.852H264.455V121.124H263.863V116.292H268.527ZM265.887 117.484H266.479V119.404C266.447 120.444 266.167 121.284 265.655 121.908C265.159 122.492 264.343 122.948 263.207 123.268L262.887 122.764C264.007 122.452 264.791 122.036 265.231 121.516C265.647 120.972 265.863 120.268 265.887 119.404V117.484ZM266.807 121.236C267.775 121.66 268.663 122.172 269.463 122.772L269.135 123.276C268.279 122.604 267.399 122.068 266.503 121.684L266.807 121.236Z" fill="#4B4E50"/>
<rect x="220" y="134.5" width="77.5717" height="22" rx="11" fill="#F0F6FE" fill-opacity="0.4"/>
<rect x="231.445" y="144.5" width="54.6817" height="2" rx="1" fill="white"/>
<rect x="231.445" y="144.5" width="41.965" height="2" rx="1" fill="url(#paint4_linear_0_1)"/>
<circle cx="275.317" cy="145.5" r="2.81921" fill="#7DAFF2"/>
<defs>
<filter id="filter0_d_0_1" x="0" y="42" width="196" height="137" filterUnits="userSpaceOnUse" color-interpolation-filters="sRGB">
<feFlood flood-opacity="0" result="BackgroundImageFix"/>
<feColorMatrix in="SourceAlpha" type="matrix" values="0 0 0 0 0 0 0 0 0 0 0 0 0 0 0 0 0 0 127 0" result="hardAlpha"/>
<feOffset dy="2"/>
<feGaussianBlur stdDeviation="4.75"/>
<feComposite in2="hardAlpha" operator="out"/>
<feColorMatrix type="matrix" values="0 0 0 0 0 0 0 0 0 0 0 0 0 0 0 0 0 0 0.06 0"/>
<feBlend mode="normal" in2="BackgroundImageFix" result="effect1_dropShadow_0_1"/>
<feBlend mode="normal" in="SourceGraphic" in2="effect1_dropShadow_0_1" result="shape"/>
</filter>
<filter id="filter1_d_0_1" x="193" y="0" width="169" height="91" filterUnits="userSpaceOnUse" color-interpolation-filters="sRGB">
<feFlood flood-opacity="0" result="BackgroundImageFix"/>
<feColorMatrix in="SourceAlpha" type="matrix" values="0 0 0 0 0 0 0 0 0 0 0 0 0 0 0 0 0 0 127 0" result="hardAlpha"/>
<feOffset dy="2"/>
<feGaussianBlur stdDeviation="4.75"/>
<feComposite in2="hardAlpha" operator="out"/>
<feColorMatrix type="matrix" values="0 0 0 0 0 0 0 0 0 0 0 0 0 0 0 0 0 0 0.06 0"/>
<feBlend mode="normal" in2="BackgroundImageFix" result="effect1_dropShadow_0_1"/>
<feBlend mode="normal" in="SourceGraphic" in2="effect1_dropShadow_0_1" result="shape"/>
</filter>
<filter id="filter2_d_0_1" x="214.271" y="48" width="49.5098" height="23" filterUnits="userSpaceOnUse" color-interpolation-filters="sRGB">
<feFlood flood-opacity="0" result="BackgroundImageFix"/>
<feColorMatrix in="SourceAlpha" type="matrix" values="0 0 0 0 0 0 0 0 0 0 0 0 0 0 0 0 0 0 127 0" result="hardAlpha"/>
<feOffset/>
<feGaussianBlur stdDeviation="1.75"/>
<feComposite in2="hardAlpha" operator="out"/>
<feColorMatrix type="matrix" values="0 0 0 0 0.740385 0 0 0 0 0.853966 0 0 0 0 1 0 0 0 0.54 0"/>
<feBlend mode="normal" in2="BackgroundImageFix" result="effect1_dropShadow_0_1"/>
<feBlend mode="normal" in="SourceGraphic" in2="effect1_dropShadow_0_1" result="shape"/>
</filter>
<filter id="filter3_d_0_1" x="237.1" y="44.1" width="30.8" height="30.8" filterUnits="userSpaceOnUse" color-interpolation-filters="sRGB">
<feFlood flood-opacity="0" result="BackgroundImageFix"/>
<feColorMatrix in="SourceAlpha" type="matrix" values="0 0 0 0 0 0 0 0 0 0 0 0 0 0 0 0 0 0 127 0" result="hardAlpha"/>
<feOffset/>
<feGaussianBlur stdDeviation="4.2"/>
<feComposite in2="hardAlpha" operator="out"/>
<feColorMatrix type="matrix" values="0 0 0 0 0.443787 0 0 0 0 0.72855 0 0 0 0 0.961538 0 0 0 0.23 0"/>
<feBlend mode="normal" in2="BackgroundImageFix" result="effect1_dropShadow_0_1"/>
<feBlend mode="normal" in="SourceGraphic" in2="effect1_dropShadow_0_1" result="shape"/>
</filter>
<filter id="filter4_d_0_1" x="193" y="86" width="169" height="93" filterUnits="userSpaceOnUse" color-interpolation-filters="sRGB">
<feFlood flood-opacity="0" result="BackgroundImageFix"/>
<feColorMatrix in="SourceAlpha" type="matrix" values="0 0 0 0 0 0 0 0 0 0 0 0 0 0 0 0 0 0 127 0" result="hardAlpha"/>
<feOffset dy="2"/>
<feGaussianBlur stdDeviation="4.75"/>
<feComposite in2="hardAlpha" operator="out"/>
<feColorMatrix type="matrix" values="0 0 0 0 0 0 0 0 0 0 0 0 0 0 0 0 0 0 0.06 0"/>
<feBlend mode="normal" in2="BackgroundImageFix" result="effect1_dropShadow_0_1"/>
<feBlend mode="normal" in="SourceGraphic" in2="effect1_dropShadow_0_1" result="shape"/>
</filter>
<linearGradient id="paint0_linear_0_1" x1="259.715" y1="58.0967" x2="15.4272" y2="145.017" gradientUnits="userSpaceOnUse">
<stop stop-color="#FFF3AE"/>
<stop offset="1" stop-color="#E2FFCF"/>
</linearGradient>
<linearGradient id="paint1_linear_0_1" x1="153.266" y1="123.133" x2="33.8121" y2="127.561" gradientUnits="userSpaceOnUse">
<stop stop-color="#65EE5E"/>
<stop offset="1" stop-color="#45EF8C"/>
</linearGradient>
<linearGradient id="paint2_linear_0_1" x1="335.491" y1="90.5" x2="284.017" y2="62.4469" gradientUnits="userSpaceOnUse">
<stop stop-color="#7DAFF2"/>
<stop offset="1" stop-color="#DEECFF"/>
</linearGradient>
<linearGradient id="paint3_linear_0_1" x1="42.51" y1="8" x2="0" y2="8" gradientUnits="userSpaceOnUse">
<stop stop-color="#ECF4FD"/>
<stop offset="1" stop-color="white"/>
</linearGradient>
<linearGradient id="paint4_linear_0_1" x1="184.363" y1="145.5" x2="273.41" y2="145.5" gradientUnits="userSpaceOnUse">
<stop stop-color="white"/>
<stop offset="1" stop-color="#7DAFF2"/>
</linearGradient>
<clipPath id="clip0_0_1">
<rect width="12" height="12" fill="white" transform="translate(127.5 22.5)"/>
</clipPath>
</defs>
</svg>
