<svg width="344" height="161" xmlns="http://www.w3.org/2000/svg" fill="none">
 <defs>
  <filter color-interpolation-filters="sRGB" filterUnits="userSpaceOnUse" height="137" width="196" y="42" x="0" id="filter0_d_0_1">
   <feGaussianBlur stdDeviation="4.75"/>
  </filter>
  <filter color-interpolation-filters="sRGB" filterUnits="userSpaceOnUse" height="91" width="169" y="0" x="193" id="filter1_d_0_1">
   <feGaussianBlur stdDeviation="4.75"/>
  </filter>
  <filter color-interpolation-filters="sRGB" filterUnits="userSpaceOnUse" height="23" width="49.5098" y="48" x="214.271" id="filter2_d_0_1">
   <feGaussianBlur stdDeviation="1.75"/>
  </filter>
  <filter color-interpolation-filters="sRGB" filterUnits="userSpaceOnUse" height="30.8" width="30.8" y="44.1" x="237.1" id="filter3_d_0_1">
   <feGaussianBlur stdDeviation="4.2"/>
  </filter>
  <filter color-interpolation-filters="sRGB" filterUnits="userSpaceOnUse" height="93" width="169" y="86" x="193" id="filter4_d_0_1">
   <feGaussianBlur stdDeviation="4.75"/>
  </filter>
  <clipPath id="clip0_0_1">
   <rect id="svg_1" x="127.5" y="22.5" fill="white" height="12" width="12"/>
  </clipPath>
  <linearGradient y2="0.87939" x2="-0.11482" y1="-1.00715" x1="2.03086" id="paint0_linear_0_1">
   <stop stop-color="#FFF3AE"/>
   <stop stop-color="#E2FFCF" offset="1"/>
  </linearGradient>
  <linearGradient y2="0.48924" x2="-0.00019" y1="0.36364" x1="1.64084" id="paint1_linear_0_1">
   <stop stop-color="#65EE5E"/>
   <stop stop-color="#45EF8C" offset="1"/>
  </linearGradient>
  <linearGradient y2="-0.36605" x2="0.41725" y1="0.90909" x1="1.46667" id="paint2_linear_0_1">
   <stop stop-color="#7DAFF2"/>
   <stop stop-color="#DEECFF" offset="1"/>
  </linearGradient>
  <linearGradient y2="0.5" x2="0.01205" y1="0.5" x1="1.03614" id="paint3_linear_0_1">
   <stop stop-color="#ECF4FD"/>
   <stop stop-color="white" offset="1"/>
  </linearGradient>
  <linearGradient y2="0.5" x2="1" y1="0.5" x1="-1.12193" id="paint4_linear_0_1">
   <stop stop-color="white"/>
   <stop stop-color="#7DAFF2" offset="1"/>
  </linearGradient>
 </defs>
 <g>
  <title>Layer 1</title>
  <g id="svg_2" clip-path="url(#clip0_0_1)">
   <path id="svg_3" fill="#7DAFF2" d="m122.83375,20.99428l-2.939,-3.2147c-0.184,-0.1975 -0.556,-0.2563 -0.82,-0.0981c-0.265,0.1583 -0.345,0.4147 -0.132,0.6318l2.694,2.9653l0,0.0042l-2.667,2.9275c-0.185,0.1975 -0.132,0.4931 0.131,0.6318c0.265,0.1386 0.636,0.098 0.821,-0.1177l2.912,-3.1979c0.132,-0.1568 0.132,-0.374 0,-0.5322z"/>
   <path id="svg_4" fill="#7DAFF2" d="m126.77575,20.99428l-2.937,-3.2147c-0.185,-0.1975 -0.556,-0.2563 -0.821,-0.0981c-0.265,0.1387 -0.318,0.4343 -0.132,0.6318l2.695,2.9667l0,0.0028l-2.668,2.9275c-0.185,0.1975 -0.132,0.4931 0.132,0.6318c0.264,0.1386 0.636,0.098 0.821,-0.1177l2.91,-3.1979c0.133,-0.1568 0.133,-0.374 0,-0.5322z"/>
   <path id="svg_5" fill="#7DAFF2" d="m130.72175,20.99428l-2.938,-3.2147c-0.185,-0.1975 -0.556,-0.2563 -0.821,-0.0981c-0.264,0.1387 -0.318,0.4343 -0.131,0.6318l2.692,2.9639l0,0.007l-2.667,2.9247c-0.185,0.1975 -0.132,0.4931 0.132,0.6317c0.264,0.1387 0.636,0.0981 0.82,-0.1176l2.913,-3.1965c0.133,-0.1568 0.133,-0.374 0,-0.5322z"/>
  </g>
  <g id="svg_6" filter="url(#filter0_d_0_1)">
   <rect id="svg_7" fill="white" rx="8" height="118" width="177" y="42.45598" x="0.82075"/>
  </g>
  <path id="svg_8" fill="#4B4E50" d="m127.85175,66.89598c1.52,0 2.74,0.4 3.66,1.22c0.8,0.72 1.22,1.62 1.22,2.7c0,0.72 -0.16,1.34 -0.48,1.84c-0.36,0.52 -0.88,0.94 -1.58,1.22l0,0.04c0.66,0.18 1.24,0.58 1.72,1.2c0.54,0.68 0.82,1.46 0.82,2.34c0,1.28 -0.48,2.3 -1.4,3.1c-0.94,0.78 -2.26,1.18 -3.96,1.18c-1.72,0 -3.04,-0.4 -3.96,-1.18c-0.94,-0.8 -1.4,-1.82 -1.4,-3.1c0,-0.88 0.26,-1.66 0.82,-2.34c0.48,-0.62 1.04,-1.02 1.72,-1.2l0,-0.04c-0.72,-0.28 -1.24,-0.7 -1.58,-1.22c-0.32,-0.5 -0.48,-1.12 -0.48,-1.84c0,-1.08 0.4,-1.98 1.22,-2.7c0.9,-0.82 2.12,-1.22 3.66,-1.22zm0,1.86c-0.84,0 -1.52,0.22 -2.02,0.68c-0.44,0.4 -0.66,0.88 -0.66,1.46c0,0.66 0.18,1.18 0.54,1.56c0.44,0.46 1.14,0.7 2.14,0.7c0.98,0 1.7,-0.24 2.14,-0.7c0.36,-0.38 0.54,-0.9 0.54,-1.56c0,-0.58 -0.22,-1.06 -0.66,-1.46c-0.52,-0.46 -1.18,-0.68 -2.02,-0.68zm0,6.14c-1,0 -1.76,0.24 -2.28,0.72c-0.52,0.46 -0.76,1.08 -0.76,1.84c0,0.72 0.26,1.3 0.8,1.74c0.52,0.44 1.26,0.66 2.24,0.66c0.96,0 1.72,-0.24 2.28,-0.68c0.5,-0.44 0.76,-1 0.76,-1.72c0,-0.76 -0.26,-1.38 -0.74,-1.82c-0.54,-0.5 -1.3,-0.74 -2.3,-0.74zm11.992,-8c1.66,0 2.96,0.68 3.9,2.08c0.88,1.32 1.32,3.1 1.32,5.34c0,2.24 -0.44,4.02 -1.32,5.34c-0.94,1.38 -2.24,2.08 -3.9,2.08c-1.68,0 -2.98,-0.7 -3.9,-2.08c-0.88,-1.32 -1.32,-3.1 -1.32,-5.34c0,-2.24 0.44,-4.02 1.32,-5.34c0.92,-1.4 2.22,-2.08 3.9,-2.08zm0,1.98c-1.14,0 -1.94,0.62 -2.4,1.9c-0.32,0.86 -0.48,2.04 -0.48,3.54c0,1.48 0.16,2.66 0.48,3.54c0.46,1.26 1.26,1.9 2.4,1.9c1.12,0 1.92,-0.64 2.4,-1.9c0.32,-0.88 0.48,-2.06 0.48,-3.54c0,-1.5 -0.16,-2.68 -0.48,-3.54c-0.48,-1.28 -1.28,-1.9 -2.4,-1.9zm15.077,7.888c0.672,0 1.188,0.228 1.548,0.708c0.312,0.408 0.48,0.96 0.48,1.644c0,0.672 -0.168,1.224 -0.48,1.644c-0.36,0.456 -0.876,0.696 -1.548,0.696c-0.672,0 -1.2,-0.24 -1.56,-0.696c-0.336,-0.432 -0.492,-0.972 -0.492,-1.644c0,-0.684 0.156,-1.236 0.492,-1.644c0.36,-0.48 0.888,-0.708 1.56,-0.708zm-1.224,-4.044l1.044,0l-4.812,8.904l-1.044,0l4.812,-8.904zm-4.968,0.168c0.672,0 1.188,0.228 1.548,0.708c0.312,0.408 0.48,0.96 0.48,1.644c0,0.672 -0.168,1.224 -0.48,1.644c-0.36,0.456 -0.876,0.696 -1.548,0.696c-0.672,0 -1.2,-0.24 -1.56,-0.696c-0.336,-0.432 -0.492,-0.972 -0.492,-1.644c0,-0.684 0.156,-1.236 0.492,-1.644c0.36,-0.48 0.888,-0.708 1.56,-0.708zm6.192,4.752c-0.3,0 -0.516,0.156 -0.636,0.468c-0.096,0.24 -0.144,0.576 -0.144,1.008c0,0.42 0.048,0.756 0.144,0.996c0.12,0.312 0.336,0.468 0.636,0.468c0.288,0 0.492,-0.168 0.624,-0.492c0.084,-0.24 0.132,-0.564 0.132,-0.972c0,-0.432 -0.048,-0.756 -0.144,-0.996c-0.12,-0.324 -0.324,-0.48 -0.612,-0.48zm-6.192,-3.876c-0.3,0 -0.516,0.156 -0.636,0.468c-0.096,0.24 -0.144,0.576 -0.144,1.008c0,0.42 0.048,0.756 0.144,0.996c0.12,0.312 0.336,0.468 0.636,0.468c0.288,0 0.492,-0.168 0.624,-0.492c0.084,-0.24 0.132,-0.564 0.132,-0.972c0,-0.432 -0.048,-0.756 -0.144,-0.996c-0.12,-0.324 -0.324,-0.48 -0.612,-0.48z"/>
  <path id="svg_9" fill="#4B4E50" d="m82.36475,76.25598l0.504,0l0,2.288l-0.504,0l0,-0.368c-0.288,0.184 -0.592,0.36 -0.92,0.52l-0.144,-0.496c0.392,-0.144 0.744,-0.304 1.064,-0.48l0,-0.536l-1.008,0l0,-0.464l1.008,0l0,-0.464zm2.52,1.04l0,0.704c0,0.112 0.064,0.168 0.208,0.168l0.136,0c0.08,0 0.152,-0.016 0.2,-0.048c0.072,-0.048 0.12,-0.248 0.136,-0.608l0.408,0.128c-0.04,0.472 -0.104,0.752 -0.2,0.84c-0.088,0.08 -0.24,0.128 -0.448,0.136l-0.384,0c-0.184,0 -0.32,-0.048 -0.408,-0.144c-0.096,-0.096 -0.144,-0.216 -0.144,-0.36l0,-1.856l0.496,0l0,0.6c0.32,-0.088 0.608,-0.208 0.872,-0.36l0.168,0.464c-0.304,0.144 -0.656,0.256 -1.04,0.336zm0.464,-3.368l0.264,0.456c-0.496,0.144 -1.056,0.256 -1.688,0.336l0,0.664l1.8,0l0,0.512l-1.8,0l0,2.696c0.592,0.392 1.192,0.848 1.8,1.36l-0.336,0.512c-0.576,-0.568 -1.064,-1.008 -1.464,-1.312l0,2.12l-0.544,0l0,-2.288c-0.52,0.704 -1.136,1.296 -1.84,1.776l-0.336,-0.504c0.928,-0.568 1.648,-1.248 2.176,-2.048l0,-2.312l-1.952,0l0,-0.512l1.952,0l0,-0.616c-0.512,0.04 -1.064,0.064 -1.648,0.064l-0.152,-0.472c1.512,0 2.768,-0.144 3.768,-0.432zm1.008,0.928l0.52,0l0,4.88l-0.52,0l0,-4.88zm1.12,6.352l-0.768,0l-0.12,-0.544c0.24,0.024 0.472,0.04 0.696,0.04c0.232,0 0.352,-0.112 0.352,-0.32l0,-6.368l0.56,0l0,6.504c0,0.456 -0.24,0.688 -0.72,0.688zm5.144,-7.256l0.408,0c1.008,0.944 2.176,1.688 3.504,2.24l-0.304,0.528c-1.328,-0.576 -2.464,-1.328 -3.408,-2.264c-0.864,0.888 -2.016,1.656 -3.44,2.304l-0.288,-0.528c1.408,-0.616 2.584,-1.376 3.528,-2.28zm-1.912,2.144l4.248,0l0,0.552l-1.776,0l0,1.032l2.904,0l0,0.56l-2.904,0l0,2.112c0,0.536 -0.28,0.808 -0.832,0.808l-0.96,0l-0.128,-0.544c0.312,0.016 0.608,0.032 0.896,0.032c0.304,0 0.456,-0.152 0.456,-0.44l0,-1.968l-3.048,0l0,-0.56l3.048,0l0,-1.032l-1.904,0l0,-0.552zm0.408,2.664l0.504,0.208c-0.456,0.832 -1.056,1.464 -1.8,1.904l-0.44,-0.368c0.768,-0.432 1.344,-1.016 1.736,-1.744zm3.392,-0.104c0.784,0.72 1.392,1.352 1.816,1.888l-0.48,0.336c-0.432,-0.584 -1.024,-1.232 -1.776,-1.944l0.44,-0.28zm3.92,-1.376l0,1.2l1.968,0l0,-1.2l-1.968,0zm1.968,1.736l-1.968,0l0,0.68l-0.576,0l0,-4.664l2.544,0l0,-1.096l0.584,0l0,1.096l2.592,0l0,3.984l-2.592,0l0,0.984c0,0.392 0.176,0.592 0.528,0.592l1.824,0c0.2,0 0.344,-0.048 0.44,-0.136c0.08,-0.096 0.136,-0.408 0.168,-0.952l0.544,0.184c-0.048,0.68 -0.136,1.096 -0.28,1.24c-0.144,0.136 -0.4,0.208 -0.776,0.208l-2.056,0c-0.656,0 -0.976,-0.352 -0.976,-1.048l0,-1.072zm0.584,-0.536l2.024,0l0,-1.2l-2.024,0l0,1.2zm2.024,-1.728l0,-1.176l-2.024,0l0,1.176l2.024,0zm-2.608,-1.176l-1.968,0l0,1.176l1.968,0l0,-1.176zm5.648,1.696l5.568,0l0,2.04l-2.512,0l0,0.448l2.712,0l0,0.384l-2.712,0l0,0.472l3.296,0l0,0.448l-7.152,0l0,-0.448l3.28,0l0,-0.472l-2.68,0l0,-0.384l2.68,0l0,-0.448l-2.48,0l0,-2.04zm5.016,1.68l0,-0.488l-1.96,0l0,0.488l1.96,0zm-2.536,0l0,-0.488l-1.928,0l0,0.488l1.928,0zm-1.928,-0.824l1.928,0l0,-0.496l-1.928,0l0,0.496zm2.504,-0.496l0,0.496l1.96,0l0,-0.496l-1.96,0zm-2.88,-3.584l5.224,0l0,1.976l-5.224,0l0,-1.976zm4.664,1.632l0,-0.472l-4.104,0l0,0.472l4.104,0zm-4.104,-0.816l4.104,0l0,-0.464l-4.104,0l0,0.464zm-1.544,1.576l7.168,0l0,0.432l-7.168,0l0,-0.432z"/>
  <rect id="svg_10" stroke-width="2" stroke="url(#paint0_linear_0_1)" fill="white" rx="9" height="46.0741" width="113.851" y="97.45598" x="19.82075"/>
  <rect id="svg_11" fill-opacity="0.11" fill="#BCD0EB" rx="6" height="35.2543" width="101.498" y="102.86498" x="25.99655"/>
  <path id="svg_12" fill="#F0F9BF" d="m140.82075,119.42398c0,2.655 -1.378,4.807 -3.076,4.807c0,-3.005 0,-2.152 0,-4.807c0,-2.655 0,-2.104 0,-4.808c1.698,0 3.076,2.153 3.076,4.808z"/>
  <path id="svg_13" fill="url(#paint1_linear_0_1)" d="m25.14695,109.26898c0,-3.313 2.6863,-6 6,-6l66.7918,0l0,35.255l-66.7918,0c-3.3137,0 -6,-2.686 -6,-6l0,-23.255z"/>
  <path id="svg_14" fill="#4B4E50" d="m2.54275,13.15798c0.952,0.742 1.764,1.47 2.422,2.198l-0.714,0.714c-0.588,-0.7 -1.386,-1.442 -2.408,-2.254l0.7,-0.658zm8.176,12.446c-0.756,0 -1.568,-0.014 -2.45,-0.028c-0.882,-0.014 -1.61,-0.098 -2.17,-0.252c-0.532,-0.168 -1.022,-0.518 -1.456,-1.022c-0.182,-0.238 -0.364,-0.35 -0.532,-0.35c-0.336,0 -0.896,0.644 -1.68,1.932l-0.756,-0.686c0.756,-1.176 1.414,-1.89 2.002,-2.142l0,-4.256l-2.002,0l0,-0.924l2.94,0l0,5.25c0.112,0.084 0.21,0.182 0.322,0.308c0.336,0.406 0.686,0.7 1.078,0.882c0.42,0.196 1.05,0.308 1.862,0.336c0.728,0.014 1.624,0.028 2.702,0.028c0.672,0 1.358,-0.014 2.058,-0.028c0.672,-0.014 1.204,-0.028 1.582,-0.056l-0.252,1.008l-3.248,0zm-4.186,-11.788l6.426,0l0,0.924l-6.426,0l0,-0.924zm-0.854,3.178l8.302,0l0,0.966l-4.368,0c-0.77,1.988 -1.456,3.402 -2.072,4.242c1.82,-0.196 3.318,-0.448 4.508,-0.728c-0.336,-0.784 -0.714,-1.54 -1.12,-2.268l0.826,-0.266c0.756,1.288 1.428,2.758 2.016,4.41l-0.896,0.238c-0.14,-0.434 -0.294,-0.854 -0.462,-1.246c-1.54,0.364 -3.556,0.658 -6.048,0.896l-0.252,-0.882c0.588,-0.168 1.414,-1.638 2.506,-4.396l-2.94,0l0,-0.966zm15.092,-3.08l6.706,0l0,0.994l-6.706,0l0,-0.994zm-0.378,3.556l7.7,0l0,0.994l-2.268,0l0,6.118c0,0.812 -0.462,1.218 -1.358,1.218l-2.058,0l-0.21,-0.994c0.672,0.042 1.302,0.07 1.918,0.07c0.448,0 0.686,-0.182 0.686,-0.546l0,-5.866l-4.41,0l0,-0.994zm-1.834,-4.326l0.91,0.42c-0.784,1.554 -2.044,2.926 -3.78,4.116l-0.294,-1.008c1.456,-1.036 2.506,-2.212 3.164,-3.528zm0.658,3.192l0.91,0.42c-0.406,0.784 -0.91,1.54 -1.526,2.24l0,6.86l-0.994,0l0,-5.838c-0.56,0.504 -1.162,0.994 -1.834,1.456l-0.294,-1.008c1.708,-1.204 2.954,-2.576 3.738,-4.13zm13.37,3.416l0,-6.65l0.994,0l0,12.712l-0.994,0l0,-4.872c-0.84,0.896 -1.806,1.75 -2.87,2.534l-0.308,-1.05c1.162,-0.77 2.226,-1.666 3.178,-2.674zm-2.044,-5.264c0.532,1.12 0.994,2.324 1.386,3.598l-0.882,0.406c-0.434,-1.4 -0.924,-2.632 -1.456,-3.696l0.952,-0.308zm9.45,-1.19c0.756,0.84 1.33,1.582 1.736,2.212l-0.784,0.56c-0.42,-0.7 -1.008,-1.456 -1.736,-2.282l0.784,-0.49zm-1.554,-0.238c0,1.036 -0.014,2.268 -0.042,3.724l3.416,0l0,0.966l-3.304,0c0.602,3.136 1.862,5.572 3.794,7.28l-0.686,0.756c-1.764,-1.666 -2.954,-3.78 -3.57,-6.328c-0.588,2.534 -1.694,4.662 -3.29,6.37l-0.672,-0.756c1.876,-2.1 2.954,-4.55 3.234,-7.322l-2.814,0l0,-0.966l2.87,0c0.042,-1.624 0.07,-2.87 0.07,-3.724l0.994,0zm10.878,-0.168l1.008,0.098c-0.056,0.532 -0.154,1.022 -0.266,1.498l5.404,0l0,0.966l-4.48,0c0.686,1.554 2.422,2.758 5.208,3.626l-0.532,0.868c-3.108,-1.092 -4.998,-2.59 -5.698,-4.494l-0.21,0c-0.308,0.812 -0.728,1.526 -1.246,2.114c-0.056,0.056 -0.098,0.098 -0.14,0.154c0.616,0.434 1.288,0.994 2.044,1.68l-0.7,0.7c-0.672,-0.672 -1.344,-1.274 -2.016,-1.806c-0.924,0.686 -2.24,1.246 -3.92,1.694l-0.392,-0.924c1.988,-0.504 3.43,-1.232 4.312,-2.156c0.392,-0.42 0.7,-0.91 0.952,-1.456l-4.592,0l0,-0.966l4.942,0c0.154,-0.504 0.266,-1.036 0.322,-1.596zm-4.494,8.274l0.994,0.21c-0.336,1.456 -0.812,2.716 -1.414,3.78l-0.868,-0.546c0.588,-1.036 1.022,-2.184 1.288,-3.444zm5.306,-0.504c0.49,0.728 0.924,1.512 1.288,2.352l-0.924,0.406c-0.392,-0.938 -0.798,-1.764 -1.246,-2.478l0.882,-0.28zm4.186,0.294c0.672,1.036 1.26,2.156 1.764,3.36l-0.924,0.406c-0.546,-1.316 -1.148,-2.464 -1.806,-3.458l0.966,-0.308zm-2.562,4.606l-3.556,0c-0.896,0 -1.33,-0.476 -1.33,-1.4l0,-3.038l1.036,0l0,2.828c0,0.42 0.196,0.63 0.616,0.63l3.052,0c0.294,0 0.504,-0.084 0.63,-0.252c0.168,-0.196 0.28,-0.77 0.336,-1.736l0.952,0.308c-0.098,1.26 -0.294,2.016 -0.574,2.296c-0.252,0.238 -0.63,0.364 -1.162,0.364z"/>
  <path id="svg_15" fill="#7DAFF2" d="m69.74075,17.51598l-3.78,0l0,-0.71l7.9,0l0,0.71l-3.39,0l0,2.91l2.88,0l0,0.69l-2.88,0l0,3.2l3.81,0l0,0.7l-8.91,0l0,-0.7l1.57,0l0,-4.8l0.7,0l0,4.8l2.1,0l0,-6.8zm9.71,3.9l-2.2,0l0,-2.2l5.16,0l0,2.2l-2.22,0l0,0.8l3.18,0l0,1.82c0,0.6 -0.31,0.9 -0.91,0.9l-0.8,0l-0.19,-0.69l0.76,0.03c0.28,0 0.43,-0.14 0.43,-0.4l0,-1l-2.47,0l0,2.6l-0.74,0l0,-2.6l-2.42,0l0,2.12l-0.71,0l0,-2.78l3.13,0l0,-0.8zm0,-5.18l0.74,0l0,1.53l1.27,0c0.31,-0.44 0.58,-0.9 0.8,-1.39l0.67,0.25c-0.23,0.44 -0.47,0.82 -0.71,1.14l1.76,0l0,2.02l-0.74,0l0,-1.34l-6.84,0l0,1.35l-0.74,0l0,-2.03l1.63,0c-0.19,-0.38 -0.42,-0.74 -0.68,-1.07l0.68,-0.25c0.26,0.37 0.5,0.81 0.71,1.32l1.45,0l0,-1.53zm2.27,4.57l0,-0.98l-3.77,0l0,0.98l3.77,0zm4.33,-4.42c0.68,0.53 1.26,1.05 1.73,1.57l-0.51,0.51c-0.42,-0.5 -0.99,-1.03 -1.72,-1.61l0.5,-0.47zm5.84,8.89c-0.54,0 -1.12,-0.01 -1.75,-0.02c-0.63,-0.01 -1.15,-0.07 -1.55,-0.18c-0.38,-0.12 -0.73,-0.37 -1.04,-0.73c-0.13,-0.17 -0.26,-0.25 -0.38,-0.25c-0.24,0 -0.64,0.46 -1.2,1.38l-0.54,-0.49c0.54,-0.84 1.01,-1.35 1.43,-1.53l0,-3.04l-1.43,0l0,-0.66l2.1,0l0,3.75c0.08,0.06 0.15,0.13 0.23,0.22c0.24,0.29 0.49,0.5 0.77,0.63c0.3,0.14 0.75,0.22 1.33,0.24c0.52,0.01 1.16,0.02 1.93,0.02c0.48,0 0.97,-0.01 1.47,-0.02c0.48,-0.01 0.86,-0.02 1.13,-0.04l-0.18,0.72l-2.32,0zm-2.99,-8.42l4.59,0l0,0.66l-4.59,0l0,-0.66zm-0.61,2.27l5.93,0l0,0.69l-3.12,0c-0.55,1.42 -1.04,2.43 -1.48,3.03c1.3,-0.14 2.37,-0.32 3.22,-0.52c-0.24,-0.56 -0.51,-1.1 -0.8,-1.62l0.59,-0.19c0.54,0.92 1.02,1.97 1.44,3.15l-0.64,0.17c-0.1,-0.31 -0.21,-0.61 -0.33,-0.89c-1.1,0.26 -2.54,0.47 -4.32,0.64l-0.18,-0.63c0.42,-0.12 1.01,-1.17 1.79,-3.14l-2.1,0l0,-0.69zm10.78,-2.2l4.79,0l0,0.71l-4.79,0l0,-0.71zm-0.27,2.54l5.5,0l0,0.71l-1.62,0l0,4.37c0,0.58 -0.33,0.87 -0.97,0.87l-1.47,0l-0.15,-0.71c0.48,0.03 0.93,0.05 1.37,0.05c0.32,0 0.49,-0.13 0.49,-0.39l0,-4.19l-3.15,0l0,-0.71zm-1.31,-3.09l0.65,0.3c-0.56,1.11 -1.46,2.09 -2.7,2.94l-0.21,-0.72c1.04,-0.74 1.79,-1.58 2.26,-2.52zm0.47,2.28l0.65,0.3c-0.29,0.56 -0.65,1.1 -1.09,1.6l0,4.9l-0.71,0l0,-4.17c-0.4,0.36 -0.83,0.71 -1.31,1.04l-0.21,-0.72c1.22,-0.86 2.11,-1.84 2.67,-2.95zm11.49,-2.41l0.74,0l0,1.8l3.59,0l0,4.7l-0.72,0l0,-0.63l-2.87,0l0,3.41l-0.74,0l0,-3.41l-2.86,0l0,0.63l-0.72,0l0,-4.7l3.58,0l0,-1.8zm-2.86,5.17l2.86,0l0,-2.67l-2.86,0l0,2.67zm3.6,0l2.87,0l0,-2.67l-2.87,0l0,2.67z"/>
  <g id="svg_16" filter="url(#filter1_d_0_1)">
   <rect id="svg_17" fill="white" rx="8" height="72" width="150" y="0.45598" x="193.82075"/>
  </g>
  <path id="svg_18" fill="#4B4E50" d="m221.38875,20.71998l0,6.464l-1.632,0l0,-0.72l-6.368,0l0,0.72l-1.632,0l0,-6.464l9.632,0zm-8,4.176l6.368,0l0,-2.608l-6.368,0l0,2.608zm6.528,-9.44l-8.768,0l0,1.952l8.768,0l0,-1.952zm-8.768,3.488l0,0.672c-0.016,2.928 -0.72,5.456 -2.096,7.584l-1.312,-1.184c1.152,-1.664 1.744,-3.792 1.76,-6.4l0,-5.728l5.232,0c-0.208,-0.528 -0.432,-1.024 -0.656,-1.472l1.744,-0.288c0.208,0.528 0.416,1.12 0.624,1.76l5.136,0l0,5.056l-10.432,0zm15.808,-0.72l0,2.304l3.52,0l0,-2.304l-3.52,0zm-0.08,3.84c-0.208,1.984 -0.8,3.648 -1.776,4.96l-1.28,-1.152c0.944,-1.344 1.424,-3.056 1.456,-5.136l0,-7.92l12.4,0l0,12.08c0,1.232 -0.64,1.856 -1.904,1.856l-1.84,0l-0.448,-1.632c0.64,0.064 1.216,0.096 1.76,0.096c0.48,0 0.736,-0.32 0.736,-0.928l0,-2.224l-3.808,0l0,4.512l-1.696,0l0,-4.512l-3.6,0zm9.104,-1.536l0,-2.304l-3.808,0l0,2.304l3.808,0zm0,-3.84l0,-2.24l-3.808,0l0,2.24l3.808,0zm-5.504,-2.24l-3.52,0l0,2.24l3.52,0l0,-2.24z"/>
  <rect transform="rotate(180 254.872 63.4559)" id="svg_19" fill-opacity="0.21" fill="url(#paint2_linear_0_1)" rx="11" height="22" width="49.05" y="63.45598" x="254.87175"/>
  <g id="svg_20" filter="url(#filter2_d_0_1)">
   <rect x="8.67925" y="-7.04402" id="svg_21" fill="white" transform="matrix(-1 0 0 1 260.281 51.5)" rx="8" height="16" width="42.51"/>
   <rect id="svg_22" stroke="url(#paint3_linear_0_1)" transform="matrix(-1 0 0 1 259.281 51.5)" rx="7.5" height="15" width="41.51" y="-6.54402" x="8.17925"/>
  </g>
  <g id="svg_23" filter="url(#filter3_d_0_1)">
   <circle transform="rotate(180 243.821 52.4559)" id="svg_24" fill="#7DAFF2" r="7" cy="52.45598" cx="243.82075"/>
  </g>
  <path id="svg_25" fill="#4B4E50" d="m245.75375,22.76798l0,-3.8l0.568,0l0,7.264l-0.568,0l0,-2.784c-0.48,0.512 -1.032,1 -1.64,1.448l-0.176,-0.6c0.664,-0.44 1.272,-0.952 1.816,-1.528zm-1.168,-3.008c0.304,0.64 0.568,1.328 0.792,2.056l-0.504,0.232c-0.248,-0.8 -0.528,-1.504 -0.832,-2.112l0.544,-0.176zm5.4,-0.68c0.432,0.48 0.76,0.904 0.992,1.264l-0.448,0.32c-0.24,-0.4 -0.576,-0.832 -0.992,-1.304l0.448,-0.28zm-0.888,-0.136c0,0.592 -0.008,1.296 -0.024,2.128l1.952,0l0,0.552l-1.888,0c0.344,1.792 1.064,3.184 2.168,4.16l-0.392,0.432c-1.008,-0.952 -1.688,-2.16 -2.04,-3.616c-0.336,1.448 -0.968,2.664 -1.88,3.64l-0.384,-0.432c1.072,-1.2 1.688,-2.6 1.848,-4.184l-1.608,0l0,-0.552l1.64,0c0.024,-0.928 0.04,-1.64 0.04,-2.128l0.568,0zm6.216,-0.096l0.576,0.056c-0.032,0.304 -0.088,0.584 -0.152,0.856l3.088,0l0,0.552l-2.56,0c0.392,0.888 1.384,1.576 2.976,2.072l-0.304,0.496c-1.776,-0.624 -2.856,-1.48 -3.256,-2.568l-0.12,0c-0.176,0.464 -0.416,0.872 -0.712,1.208c-0.032,0.032 -0.056,0.056 -0.08,0.088c0.352,0.248 0.736,0.568 1.168,0.96l-0.4,0.4c-0.384,-0.384 -0.768,-0.728 -1.152,-1.032c-0.528,0.392 -1.28,0.712 -2.24,0.968l-0.224,-0.528c1.136,-0.288 1.96,-0.704 2.464,-1.232c0.224,-0.24 0.4,-0.52 0.544,-0.832l-2.624,0l0,-0.552l2.824,0c0.088,-0.288 0.152,-0.592 0.184,-0.912zm-2.568,4.728l0.568,0.12c-0.192,0.832 -0.464,1.552 -0.808,2.16l-0.496,-0.312c0.336,-0.592 0.584,-1.248 0.736,-1.968zm3.032,-0.288c0.28,0.416 0.528,0.864 0.736,1.344l-0.528,0.232c-0.224,-0.536 -0.456,-1.008 -0.712,-1.416l0.504,-0.16zm2.392,0.168c0.384,0.592 0.72,1.232 1.008,1.92l-0.528,0.232c-0.312,-0.752 -0.656,-1.408 -1.032,-1.976l0.552,-0.176zm-1.464,2.632l-2.032,0c-0.512,0 -0.76,-0.272 -0.76,-0.8l0,-1.736l0.592,0l0,1.616c0,0.24 0.112,0.36 0.352,0.36l1.744,0c0.168,0 0.288,-0.048 0.36,-0.144c0.096,-0.112 0.16,-0.44 0.192,-0.992l0.544,0.176c-0.056,0.72 -0.168,1.152 -0.328,1.312c-0.144,0.136 -0.36,0.208 -0.664,0.208z"/>
  <g id="svg_26" filter="url(#filter4_d_0_1)">
   <rect id="svg_27" fill="white" rx="8" height="74" width="150" y="86.45598" x="193.82075"/>
  </g>
  <path id="svg_28" fill="#4B4E50" d="m213.32375,103.17598l9.66,0l0,1.88l-5,12.4l-2.48,0l5.12,-12.16l-7.3,0l0,-2.12zm12.294,0l8.7,0l0,2.06l-6.82,0l-0.4,3.92l0.06,0c0.44,-0.44 0.94,-0.76 1.52,-0.96c0.52,-0.2 1.1,-0.3 1.74,-0.3c1.34,0 2.44,0.44 3.28,1.32c0.84,0.88 1.28,2.1 1.28,3.64c0,1.48 -0.56,2.68 -1.68,3.62c-1.04,0.84 -2.26,1.26 -3.68,1.26c-1.3,0 -2.42,-0.36 -3.34,-1.06c-1.04,-0.78 -1.6,-1.84 -1.7,-3.16l2.3,0c0.1,0.78 0.4,1.36 0.92,1.74c0.44,0.32 1.06,0.5 1.84,0.5c0.84,0 1.56,-0.26 2.14,-0.78c0.56,-0.52 0.86,-1.22 0.86,-2.1c0,-0.96 -0.26,-1.72 -0.74,-2.26c-0.48,-0.56 -1.2,-0.82 -2.12,-0.82c-0.62,0 -1.16,0.1 -1.6,0.32c-0.5,0.24 -0.88,0.6 -1.16,1.1l-2.18,0l0.78,-8.04z"/>
  <path id="svg_29" fill="#4B4E50" d="m248.38375,109.08798l0.504,0.304c-0.376,0.664 -0.752,1.208 -1.128,1.632c-0.4,0.464 -0.936,0.92 -1.6,1.368l-0.312,-0.504c0.544,-0.312 1.04,-0.72 1.48,-1.224c0.384,-0.448 0.736,-0.968 1.056,-1.576zm0.264,3.568l-1.616,0l0,-0.552l4.776,0c-0.024,1 -0.072,1.808 -0.152,2.424c-0.08,0.608 -0.208,1.04 -0.392,1.28c-0.176,0.232 -0.464,0.36 -0.864,0.384l-1.456,0l-0.16,-0.568c0.464,0.016 0.904,0.024 1.32,0.024c0.432,0 0.712,-0.184 0.848,-0.552c0.144,-0.384 0.232,-1.192 0.272,-2.44l-1.992,0c-0.192,0.872 -0.456,1.568 -0.8,2.08c-0.408,0.576 -1.024,1.088 -1.84,1.544l-0.368,-0.48c0.736,-0.4 1.296,-0.84 1.672,-1.32c0.336,-0.464 0.584,-1.072 0.752,-1.824zm1.992,-3.672c0.464,1.232 1.288,2.208 2.48,2.92l-0.384,0.456c-1.24,-0.8 -2.104,-1.832 -2.592,-3.096l0.496,-0.28zm9.208,0.264l0,4.8l-0.592,0l0,-4.24l-3.48,0l0,4.272l-0.592,0l0,-4.832l4.664,0zm-2.64,1.192l0.592,0l0,1.92c-0.032,1.04 -0.312,1.88 -0.824,2.504c-0.496,0.584 -1.312,1.04 -2.448,1.36l-0.32,-0.504c1.12,-0.312 1.904,-0.728 2.344,-1.248c0.416,-0.544 0.632,-1.248 0.656,-2.112l0,-1.92zm0.92,3.752c0.968,0.424 1.856,0.936 2.656,1.536l-0.328,0.504c-0.856,-0.672 -1.736,-1.208 -2.632,-1.592l0.304,-0.448z"/>
  <rect id="svg_30" fill-opacity="0.4" fill="#F0F6FE" rx="11" height="22" width="77.5717" y="127.45598" x="211.32075"/>
  <rect id="svg_31" fill="white" rx="1" height="2" width="54.6817" y="137.45598" x="222.76575"/>
  <rect id="svg_32" fill="url(#paint4_linear_0_1)" rx="1" height="2" width="41.965" y="137.45598" x="222.76575"/>
  <circle id="svg_33" fill="#7DAFF2" r="2.81921" cy="138.45598" cx="266.63775"/>
 </g>
</svg>