<svg width="12" height="12" viewBox="0 0 12 12" fill="none" xmlns="http://www.w3.org/2000/svg">
<g clip-path="url(#clip0_5608_1449)">
<path d="M4.01314 5.53826L1.07442 2.32359C0.889521 2.12609 0.518328 2.06726 0.253591 2.22554C-0.0111458 2.38383 -0.0909871 2.64016 0.121923 2.85727L2.81552 5.82261V5.82681L0.148537 8.75432C-0.0363588 8.95183 0.0168687 9.24738 0.280205 9.38605C0.544942 9.52472 0.916134 9.4841 1.10103 9.26839L4.01314 6.07053C4.14481 5.91365 4.14481 5.69654 4.01314 5.53826Z" fill="#7DAFF2"/>
<path d="M7.95527 5.53826L5.01795 2.32359C4.83305 2.12609 4.46186 2.06726 4.19713 2.22554C3.93239 2.36421 3.87916 2.65977 4.06546 2.85727L6.76045 5.82401V5.82681L4.09207 8.75432C3.90718 8.95183 3.9604 9.24738 4.22374 9.38605C4.48848 9.52472 4.85967 9.4841 5.04456 9.26839L7.95527 6.07053C8.08834 5.91365 8.08834 5.69654 7.95527 5.53826Z" fill="#7DAFF2"/>
<path d="M11.9006 5.53826L8.96326 2.32359C8.77837 2.12609 8.40718 2.06726 8.14244 2.22554C7.8777 2.36421 7.82447 2.65977 8.01077 2.85727L10.703 5.8212V5.82821L8.03598 8.75292C7.85109 8.95043 7.90431 9.24598 8.16765 9.38465C8.43239 9.52332 8.80358 9.4827 8.98848 9.26699L11.9006 6.07053C12.0337 5.91365 12.0337 5.69654 11.9006 5.53826Z" fill="#7DAFF2"/>
</g>
<defs>
<clipPath id="clip0_5608_1449">
<rect width="12" height="12" fill="white"/>
</clipPath>
</defs>
</svg>
