<svg width="20" height="20" viewBox="0 0 20 20" fill="none" xmlns="http://www.w3.org/2000/svg">
<path d="M10.3032 1.6084C6.03517 1.6084 2.57617 5.0684 2.57617 9.3354V15.6784H18.0312V9.3354C18.0302 5.0674 14.5702 1.6084 10.3032 1.6084Z" fill="#CCDAFF"/>
<path d="M18.4674 18.392H2.17137C1.65437 18.392 1.23438 17.973 1.23438 17.455V17.375C1.23438 16.858 1.65337 16.438 2.17137 16.438H18.4684C18.9854 16.438 19.4054 16.857 19.4054 17.375V17.455C19.4044 17.973 18.9854 18.392 18.4674 18.392ZM6.70338 9.60799L10.3214 5.77499C10.5164 5.56799 10.8644 5.69199 10.8854 5.97499L11.0564 8.22999C11.0625 8.3123 11.0995 8.38925 11.1599 8.44543C11.2204 8.50162 11.2998 8.53289 11.3824 8.53299H13.5884C13.8664 8.53299 14.0174 8.85799 13.8384 9.07099L10.2624 13.319C10.0704 13.547 9.69838 13.42 9.68538 13.122L9.56938 10.454C9.56543 10.3693 9.52887 10.2894 9.46736 10.2311C9.40585 10.1727 9.32415 10.1405 9.23938 10.141L6.94338 10.16C6.65538 10.162 6.50538 9.81699 6.70338 9.60799Z" fill="#7A7AF9"/>
</svg>
